<?xml version="1.0" encoding="UTF-8" standalone="no"?>
<!-- Created with Inkscape (http://www.inkscape.org/) -->

<svg
   width="72.761124mm"
   height="25.98484mm"
   viewBox="0 0 72.761124 25.98484"
   version="1.1"
   id="svg5"
   xml:space="preserve"
   sodipodi:docname="get_bewegung.svg"
   inkscape:version="1.2.2 (b0a8486541, 2022-12-01)"
   xmlns:inkscape="http://www.inkscape.org/namespaces/inkscape"
   xmlns:sodipodi="http://sodipodi.sourceforge.net/DTD/sodipodi-0.dtd"
   xmlns="http://www.w3.org/2000/svg"
   xmlns:svg="http://www.w3.org/2000/svg"><sodipodi:namedview
     id="namedview7"
     pagecolor="#ffffff"
     bordercolor="#000000"
     borderopacity="0.25"
     inkscape:showpageshadow="2"
     inkscape:pageopacity="0.0"
     inkscape:pagecheckerboard="0"
     inkscape:deskcolor="#d1d1d1"
     inkscape:document-units="mm"
     showgrid="false"
     inkscape:zoom="1.6764696"
     inkscape:cx="-28.929841"
     inkscape:cy="10.736848"
     inkscape:window-width="1536"
     inkscape:window-height="791"
     inkscape:window-x="0"
     inkscape:window-y="0"
     inkscape:window-maximized="1"
     inkscape:current-layer="layer1" /><defs
     id="defs2" /><g
     inkscape:groupmode="layer"
     id="layer2"
     inkscape:label="Layer 2"><path
       style="fill:#f8fafd;stroke:#000000;stroke-width:0.84888;fill-opacity:1"
       d="M 16.71448,94.04043 C 10.225034,93.085952 4.7613455,87.415871 4.1543414,81.005829 3.9873813,79.242707 4.6222254,19.972076 4.8331066,17.634619 5.4059834,11.284715 10.550981,5.6729685 17.020608,4.341482 18.493609,4.0383298 29.847417,4.0069408 138.02857,4.0069408 c 106.24346,0 119.56133,0.035468 121.00796,0.3222624 0.96241,0.1907993 2.4428,0.718612 3.62898,1.2938549 1.71284,0.8306504 2.27995,1.2504386 3.90938,2.8938348 1.52929,1.5423721 2.08016,2.2764881 2.78755,3.7148211 1.45621,2.96082 1.57051,3.796371 1.54339,11.282702 -0.0131,3.595702 -0.16408,17.906539 -0.33568,31.801859 -0.34875,28.238738 -0.25878,26.806356 -1.89688,30.200277 -1.94356,4.026769 -5.38057,6.891328 -9.90925,8.258857 -1.21463,0.366779 -6.06769,0.383321 -121.05179,0.412639 C 71.829686,94.204835 17.380699,94.138417 16.71448,94.04043 Z M 46.56391,79.015286 c 0.255706,-0.269971 0.717337,-0.791927 1.025844,-1.159904 0.513389,-0.612351 0.666262,-0.669049 1.803931,-0.669049 1.128701,0 1.30267,-0.06303 1.891749,-0.685398 0.918568,-0.970475 1.121133,-1.456949 1.121133,-2.692485 0,-0.842324 -0.189159,-1.467702 -0.843566,-2.788907 -0.661997,-1.336532 -0.843566,-1.94232 -0.843566,-2.814494 0,-1.760314 0.110427,-1.80906 3.764444,-1.661725 3.720911,0.150033 3.973665,0.194451 4.14303,0.728074 0.151464,0.477221 -0.405446,2.843399 -0.81903,3.479866 -0.151772,0.23356 -0.395514,0.926249 -0.541647,1.539306 -0.553289,2.321124 0.381471,4.414542 2.172582,4.865548 0.526634,0.132609 1.233511,0.241106 1.570839,0.241106 0.46588,0 0.846822,0.253488 1.584642,1.054459 l 0.971322,1.054458 h 1.580945 c 1.454327,0 1.611292,-0.04302 1.959852,-0.537118 0.96992,-1.37491 1.033723,-1.420199 2.229326,-1.582446 1.007278,-0.136692 1.290723,-0.279609 1.882088,-0.948981 0.940241,-1.064269 1.058883,-1.418693 1.090668,-3.258204 0.02528,-1.463118 0.06239,-1.586673 0.495083,-1.648192 0.311044,-0.04423 0.716802,0.182542 1.211123,0.676863 1.876046,1.876046 4.263634,1.326818 5.570668,-1.281447 0.243085,-0.485089 0.548464,-0.947797 0.678622,-1.028238 0.130158,-0.08044 0.787267,0.02046 1.460246,0.224216 1.403224,0.424862 2.013567,0.331627 2.941741,-0.449381 0.683492,-0.57512 1.483248,-1.925383 1.483248,-2.504232 0,-1.09744 -1.446112,-2.771405 -3.623329,-4.19423 -1.61803,-1.057393 -1.75442,-1.510367 -0.808997,-2.68682 2.434031,-3.028827 2.342921,-7.055738 -0.219153,-9.686121 -2.064049,-2.119079 -4.694618,-2.736806 -8.427528,-1.979003 -1.745478,0.354342 -1.889629,0.355618 -2.399949,0.02124 -0.298614,-0.195659 -0.698924,-0.593816 -0.889581,-0.884794 -0.322818,-0.492685 -0.320817,-0.611166 0.02911,-1.723672 0.377558,-1.200355 0.734475,-1.6745 3.379832,-4.489935 2.215013,-2.357422 3.932487,-6.188553 3.480616,-7.764131 -0.287034,-1.000833 -1.394906,-2.502469 -3.296075,-4.467583 l -1.734251,-1.792579 -0.217233,-2.03565 c -0.245461,-2.30015 -0.668415,-3.315566 -1.968559,-4.726057 -2.196401,-2.382812 -6.21082,-2.37683 -9.011079,0.01343 -1.080872,0.922615 -1.150251,0.948461 -2.517797,0.93793 C 54.895109,21.687676 53.81571,21.456 52.838017,20.619131 50.9729,19.022659 48.761357,18.39151 46.370673,18.773424 c -3.499799,0.559095 -5.978978,3.210589 -6.578884,7.036151 -0.14719,0.938617 -0.576333,1.745988 -2.480878,4.667419 -2.596833,3.983351 -2.868318,4.293694 -6.142398,7.021605 -2.647049,2.205479 -4.226724,4.127368 -5.510695,6.70451 l -0.851178,1.708448 -2.111315,0.11634 c -3.438736,0.189485 -5.214545,1.304854 -6.624939,4.161063 -0.62382,1.263308 -0.675297,1.528557 -0.675297,3.479712 0,1.956627 0.05015,2.213101 0.681071,3.482955 0.374589,0.753937 1.255844,2.020755 1.958345,2.815152 1.407968,1.592145 1.476099,2.01012 0.44982,2.759565 -0.307195,0.224332 -1.190842,1.030993 -1.96366,1.792579 -1.710679,1.685821 -1.948177,2.433959 -1.238228,3.900519 0.80967,1.672554 2.906852,2.483445 4.376265,1.692114 0.916544,-0.493592 1.22252,-0.31879 2.064605,1.179487 0.864042,1.537347 1.652634,1.97113 3.520438,1.936496 1.392062,-0.02581 1.493275,0.0065 2.296658,0.732266 2.253592,2.035986 5.65377,0.343663 5.670397,-2.822249 0.0038,-0.730031 0.110125,-0.957047 0.617138,-1.318072 0.336879,-0.239879 0.714297,-0.436143 0.838706,-0.436143 0.124407,0 0.379225,-0.233552 0.566263,-0.519007 0.703747,-1.074056 1.873002,-0.843488 2.10927,0.415934 0.07587,0.40445 0.03146,1.638301 -0.09869,2.741888 -0.335116,2.841478 -0.124728,3.559469 1.343687,4.585621 0.621331,0.434194 1.379155,0.789445 1.684056,0.789445 0.361964,0 0.898898,0.319069 1.547065,0.91933 1.208272,1.11897 1.29169,1.152103 2.953033,1.172937 1.128566,0.01415 1.397379,-0.05696 1.792579,-0.474205 z m 146.08558,-8.181599 c 0.75394,-0.231152 1.89276,-0.77067 2.5307,-1.198925 l 1.15991,-0.778648 0.0571,-4.270555 0.0571,-4.270556 h -2.21873 -2.21873 v 3.049801 3.049799 l -0.89629,0.244857 c -3.10654,0.848679 -6.16022,-0.523264 -7.6966,-3.457892 -0.78203,-1.493742 -0.81735,-3.960661 -0.0783,-5.466995 1.12056,-2.283863 3.34762,-3.741552 5.71868,-3.743081 1.78144,-0.0011 2.6782,0.262429 4.01023,1.178707 0.59877,0.41188 1.11804,0.717769 1.15393,0.679754 0.0359,-0.03802 0.55192,-0.87578 1.14673,-1.861698 l 1.08147,-1.792579 -0.64736,-0.550193 c -0.86664,-0.736556 -2.66076,-1.597797 -3.91319,-1.878473 -1.33433,-0.29903 -4.26151,-0.292317 -5.40626,0.0124 -1.57635,0.419601 -3.80949,1.736628 -5.05447,2.980949 -1.32496,1.32426 -2.50777,3.531766 -2.89521,5.403387 -1.70204,8.222146 6.01472,15.151692 14.10928,12.669943 z m 60.51955,0.09339 c 1.25983,-0.346341 2.5128,-0.93548 3.42686,-1.611273 l 0.58643,-0.433562 v -4.283618 -4.283618 h -2.10892 -2.10891 v 2.963245 2.963242 l -0.7629,0.318759 c -0.41959,0.175316 -1.37084,0.318756 -2.1139,0.318756 -2.45988,0 -4.61614,-1.369537 -5.75989,-3.658379 -0.5371,-1.074833 -0.64254,-1.534376 -0.64254,-2.800177 0,-5.524367 6.56588,-8.531669 10.68714,-4.894923 0.2524,0.222718 0.55182,0.347507 0.66541,0.27731 0.27133,-0.167691 2.14451,-3.36651 2.14451,-3.662163 0,-0.382724 -2.34007,-1.723537 -3.79605,-2.175056 -1.86584,-0.578625 -4.67416,-0.577307 -6.55284,0.0031 -3.54098,1.093912 -6.53271,4.27788 -7.34926,7.821475 -0.27945,1.212717 -0.27945,4.047843 0,5.260561 0.34605,1.501748 1.37634,3.452827 2.461,4.660392 2.83653,3.15799 7.04667,4.364314 11.22386,3.215952 z m -105.82897,-0.458226 1.19218,-0.612077 1.33129,0.659574 c 1.15028,0.569895 1.54733,0.657539 2.92021,0.644599 1.22034,-0.01152 1.83145,-0.13174 2.63448,-0.518331 1.32393,-0.63737 2.55841,-1.865957 3.14081,-3.125836 0.43596,-0.943086 0.4556,-1.3001 0.51505,-9.363413 l 0.0618,-8.382942 h -2.22344 -2.22345 v 7.799662 7.799664 l -0.60595,0.678179 c -0.80424,0.900096 -1.88379,0.941431 -2.72134,0.104196 l -0.5742,-0.573986 -0.0601,-7.903857 -0.0601,-7.903858 h -2.20702 -2.20703 v 7.708017 c 0,8.60294 -0.0169,8.716478 -1.36114,9.160126 -0.9696,0.319997 -1.77754,-0.05321 -2.27642,-1.051514 -0.33039,-0.661156 -0.36876,-1.521802 -0.36906,-8.277253 l -3.2e-4,-7.539376 h -2.22563 -2.22563 l 0.064,8.277496 c 0.0628,8.122854 0.073,8.297196 0.5489,9.331954 1.58448,3.445491 5.55985,4.820295 8.93204,3.088976 z m -33.18912,-0.251815 c 3.52017,-1.759049 4.6877,-6.036114 2.44849,-8.969646 l -0.71171,-0.932384 0.71171,-0.932383 c 2.2463,-2.942814 1.02314,-7.343152 -2.50516,-9.01234 l -1.26726,-0.599525 -6.06314,-1.66e-4 -6.06313,-1.67e-4 v 10.544581 10.544581 h 6.08217 6.08218 z m 21.13602,-1.571811 V 66.43086 h -5.06139 -5.0614 v -1.898024 -1.898025 h 3.48684 3.48685 l -0.0599,-2.267085 -0.0599,-2.267085 -3.42698,-0.05795 -3.42699,-0.05795 V 56.09194 54.199139 h 5.0614 5.06139 v -2.214362 -2.214362 h -7.27576 -7.27576 v 10.544581 10.544581 h 7.27576 7.27576 z m 41.96744,0 V 66.43086 h -5.0614 -5.0614 v -1.898024 -1.898025 h 3.37426 3.37427 v -2.319808 -2.319808 h -3.37427 -3.37426 v -1.898024 -1.898025 h 5.0614 5.0614 v -2.214362 -2.214362 h -7.27576 -7.27577 v 10.544581 10.544581 h 7.27577 7.27576 z m 33.99954,1.53485 c 2.3491,-1.083755 4.24822,-3.477402 4.78159,-6.026677 0.14252,-0.681176 0.23382,-3.707508 0.23382,-7.750267 v -6.632706 h -2.21437 -2.21436 l -0.001,6.379472 c -6.4e-4,3.954431 -0.0888,6.700138 -0.2316,7.223038 -1.03751,3.7982 -6.1453,4.116973 -7.6656,0.478401 -0.2711,-0.649053 -0.32631,-1.906009 -0.32631,-7.431051 v -6.64986 h -2.21436 -2.21437 v 6.937208 c 0,7.84465 0.13863,8.767406 1.60597,10.689723 1.95655,2.563219 3.94647,3.495736 7.25148,3.398188 1.63864,-0.04836 2.22307,-0.16044 3.20937,-0.615469 z m 12.86812,-5.910851 0.0557,-6.590363 3.82876,6.53764 3.82874,6.53764 2.44529,0.05942 2.44526,0.05942 V 60.321697 49.770422 h -2.21141 -2.21138 l -0.0557,6.663872 -0.0557,6.663871 -3.89951,-6.663871 -3.89949,-6.663872 h -2.37453 -2.37452 v 10.544581 10.544581 h 2.21137 2.21135 z M 102.38788,34.691671 V 24.041645 h -0.84357 -0.84356 v 10.650026 10.650027 h 0.84356 0.84357 z m 6.96265,0.790844 c 0.002,-5.422551 0.0811,-9.736389 0.17634,-9.586308 0.0952,0.150078 1.68335,4.3988 3.52921,9.441601 l 3.35609,9.168726 1.13434,-0.05692 1.13433,-0.05692 3.36823,-9.173786 c 1.85253,-5.045582 3.45363,-9.263941 3.55801,-9.374132 0.11258,-0.118861 0.18977,3.805368 0.18977,9.648292 v 9.848638 h 0.84357 0.84356 V 34.682801 24.023903 l -1.6058,0.06159 -1.60579,0.06159 -3.245,8.857448 c -1.78474,4.871597 -3.29929,8.9998 -3.36567,9.173786 -0.0688,0.180447 -0.50523,-0.72549 -1.01588,-2.108916 -0.49237,-1.33389 -2.01697,-5.485819 -3.388,-9.226509 l -2.49279,-6.801254 h -1.55244 -1.55244 v 10.650026 10.650027 h 0.84357 0.84356 l 0.003,-9.859183 z m 24.88199,0.01055 c 0,-6.036176 0.0755,-9.771084 0.19504,-9.648292 0.10728,0.110191 1.71012,4.32855 3.56187,9.374132 l 3.36682,9.173786 1.13047,0.05857 1.13047,0.05857 3.23295,-8.810571 c 1.77812,-4.845815 3.36,-9.095275 3.5153,-9.443246 0.24117,-0.54037 0.28486,0.805751 0.29949,9.226508 l 0.0171,9.859183 h 0.84357 0.84357 V 34.691671 24.041645 h -1.5494 -1.54939 l -3.35384,9.155699 c -1.84461,5.035634 -3.39634,9.113426 -3.44829,9.061758 -0.052,-0.05167 -1.58261,-4.148006 -3.40148,-9.102975 l -3.30702,-9.009037 -1.6072,-0.06159 -1.6072,-0.06159 v 10.658898 10.658897 h 0.84357 0.84357 z m 36.02247,8.952349 0.0654,-0.790844 h -5.49591 -5.49591 V 39.436733 35.2189 h 4.53417 4.53417 v -0.73812 -0.738121 h -4.53417 -4.53417 v -4.006941 -4.00694 h 5.48318 5.48318 v -0.843567 -0.843566 h -6.43219 -6.4322 v 10.509431 c 0,5.78019 0.0647,10.574087 0.14368,10.653106 0.079,0.07902 2.94978,0.118563 6.37947,0.08787 l 6.2358,-0.0558 z m 5.52318,-3.321543 v -4.217833 l 3.32154,0.0038 3.32154,0.0038 2.17319,4.214019 2.17319,4.214022 h 0.93746 c 0.51561,0 0.93746,-0.06329 0.93746,-0.14064 0,-0.07735 -0.99105,-2.059451 -2.20234,-4.404663 l -2.20234,-4.264022 0.93476,-0.356989 c 2.12641,-0.812084 3.15523,-3.007723 3.00627,-6.415848 -0.12828,-2.935261 -0.8271,-4.121457 -3.01869,-5.123987 -0.98247,-0.449431 -1.38208,-0.486155 -6.0605,-0.556972 l -5.00868,-0.07583 v 10.669467 10.669469 h 0.84357 0.84357 z m 25.0961,-6.432195 V 24.041645 h -0.84357 -0.84357 v 10.650026 10.650027 h 0.84357 0.84357 z m 6.90882,0.773975 c 0.037,-6.593782 0.12555,-9.747035 0.27231,-9.698113 0.11961,0.03987 2.32054,4.460368 4.89096,9.823328 l 4.67348,9.750837 h 1.64456 1.64457 V 34.691671 24.041645 h -0.84356 -0.84357 v 9.80646 c 0,7.704759 -0.0565,9.806386 -0.26362,9.806112 -0.14498,-1.92e-4 -2.3531,-4.389373 -4.90693,-9.753737 l -4.64332,-9.75339 -1.73615,-0.06125 -1.73615,-0.06125 v 10.670682 10.670682 l 0.89629,-0.06485 0.89629,-0.06485 z"
       id="path2428"
       transform="scale(0.26458333)" /><path
       style="fill:#f8fafd;stroke:#000000;stroke-width:0.150062;fill-opacity:1"
       d="m 105.03844,56.126129 v -2.06908 h 3.30328 c 2.89303,0 3.33173,0.0073 3.53235,0.05906 0.6899,0.177876 1.27832,0.766294 1.45619,1.456191 0.0749,0.290393 0.0758,0.790623 0.002,1.07381 -0.19076,0.732381 -0.78927,1.321219 -1.51742,1.492894 -0.1968,0.0464 -0.75043,0.05519 -3.5051,0.05566 l -3.27138,5.51e-4 z"
       id="path2531"
       transform="scale(0.26458333)" /><path
       style="fill:#f8fafd;stroke:#000000;stroke-width:0.150062;fill-opacity:1"
       d="m 105.03844,64.514292 v -2.06908 h 3.2561 c 3.12208,0 3.26797,0.003 3.54445,0.07375 0.39808,0.101812 0.62959,0.235084 0.93933,0.540748 0.42498,0.419388 0.611,0.869704 0.611,1.479134 0,0.762451 -0.41038,1.447149 -1.07748,1.797697 -0.48786,0.256366 -0.3341,0.246834 -3.98189,0.246834 h -3.29151 z"
       id="path2533"
       transform="scale(0.26458333)" /><path
       style="fill:#f8fafd;stroke:#000000;stroke-width:0.42444;fill-opacity:1"
       d="M 175.72544,30.419981 V 25.60903 l 3.76969,0.03542 c 3.63177,0.03412 3.79474,0.04438 4.45442,0.280544 1.80028,0.644479 2.55654,1.887701 2.57465,4.232512 0.0103,1.328055 -0.12586,2.050661 -0.55292,2.935274 -0.34816,0.721181 -1.21261,1.513064 -1.99506,1.827584 -0.58786,0.236304 -0.72009,0.244578 -4.42837,0.277075 l -3.82241,0.0335 z"
       id="path2535"
       transform="scale(0.26458333)" /></g><g
     inkscape:label="Layer 1"
     inkscape:groupmode="layer"
     id="layer1"
     transform="translate(-27.584534,-75.474172)"
     style="display:inline"><path
       d="m 69.652794,88.653518 v 3.96875 a 1.6364479,1.6364479 0 0 1 -0.129911,0.64929 1.6695208,1.6695208 0 0 1 -0.356393,0.53102 1.6695208,1.6695208 0 0 1 -0.531019,0.35666 q -0.304271,0.12965 -0.649288,0.12965 -0.310091,0 -0.594783,-0.10848 a 1.5964958,1.5964958 0 0 1 -0.513556,-0.31777 1.5912042,1.5912042 0 0 1 -0.515673,0.31777 1.6726958,1.6726958 0 0 1 -0.596635,0.10848 1.6364479,1.6364479 0 0 1 -0.649288,-0.12965 1.6695208,1.6695208 0 0 1 -0.531019,-0.35666 1.6695208,1.6695208 0 0 1 -0.356658,-0.53102 q -0.129646,-0.30427 -0.129646,-0.64929 v -3.96875 h 1.112308 v 3.96875 q 0,0.11642 0.0426,0.21908 a 0.54424792,0.54424792 0 0 0 0.118269,0.17833 0.54953958,0.54953958 0 0 0 0.176213,0.11827 0.54742292,0.54742292 0 0 0 0.20267,0.0423 0.62679792,0.62679792 0 0 0 0.01455,2.7e-4 0.55906458,0.55906458 0 0 0 0.183356,-0.0299 0.52678542,0.52678542 0 0 0 0.0336,-0.0127 0.54953958,0.54953958 0 0 0 0.176212,-0.11827 0.54424792,0.54424792 0 0 0 0.118269,-0.17833 0.56541458,0.56541458 0 0 0 0.0426,-0.21908 v -3.96875 h 1.112308 v 3.96875 q 0,0.11642 0.04286,0.21908 a 0.54424792,0.54424792 0 0 0 0.118004,0.17833 0.54953958,0.54953958 0 0 0 0.176477,0.11827 0.54742292,0.54742292 0 0 0 0.202406,0.0423 0.62679792,0.62679792 0 0 0 0.01455,2.6e-4 0.55906458,0.55906458 0 0 0 0.183621,-0.0299 0.52678542,0.52678542 0 0 0 0.03334,-0.0127 0.54953958,0.54953958 0 0 0 0.176477,-0.11827 0.57044167,0.57044167 0 0 0 0.120121,-0.17833 q 0.04445,-0.10266 0.04445,-0.21908 v -3.96875 z m 20.518173,0 v 5.55784 h -1.189831 l -2.14339,-3.65866 v 3.65866 h -1.112308 v -5.55784 h 1.189831 l 2.143389,3.66263 v -3.66263 z m -26.812346,4.44553 v 1.11231 h -3.81 v -5.55784 h 3.81 v 1.11258 h -2.697427 v 1.11231 h 1.82536 v 1.1123 h -1.82536 v 1.10834 z m 11.096096,0 v 1.11231 h -3.809736 v -5.55784 h 3.809736 v 1.11258 H 71.75729 v 1.11231 h 1.82536 v 1.1123 h -1.82536 v 1.10834 z m 5.065712,-1.64332 v 2.19366 q -0.387614,0.3294 -0.864393,0.50588 -0.476515,0.17621 -0.992188,0.17621 a 2.8072292,2.8072292 0 0 1 -0.761471,-0.10266 q -0.366183,-0.10265 -0.684212,-0.29051 a 2.9646562,2.9646562 0 0 1 -0.58129,-0.44979 2.7995562,2.7995562 0 0 1 -0.449527,-0.58129 2.9233812,2.9233812 0 0 1 -0.28866,-0.68792 2.8283958,2.8283958 0 0 1 -0.102923,-0.76358 2.7863271,2.7863271 0 0 1 0.102923,-0.75962 q 0.102658,-0.36433 0.28866,-0.68395 a 2.7995562,2.7995562 0 0 1 0.449527,-0.58155 q 0.263525,-0.26141 0.58129,-0.44741 0.318029,-0.18627 0.684212,-0.28893 a 2.8072292,2.8072292 0 0 1 0.761471,-0.10266 2.8371271,2.8371271 0 0 1 0.992188,0.17648 q 0.476779,0.17621 0.864393,0.50562 l -0.581289,0.9689 a 1.8655771,1.8655771 0 0 0 -0.581554,-0.40111 1.6999479,1.6999479 0 0 0 -0.693738,-0.14525 1.6914812,1.6914812 0 0 0 -0.683948,0.13943 1.8216562,1.8216562 0 0 0 -0.560123,0.37783 q -0.240241,0.23839 -0.379677,0.55827 -0.1397,0.31962 -0.1397,0.68395 a 1.7147646,1.7147646 0 0 0 0.1397,0.69003 1.7983729,1.7983729 0 0 0 0.379677,0.56198 q 0.240242,0.24024 0.560123,0.37967 0.319617,0.1397 0.683948,0.1397 0.209285,0 0.406929,-0.0505 0.197644,-0.0503 0.375973,-0.13944 v -1.58141 z m 16.1036,0 v 2.19366 q -0.387614,0.3294 -0.864129,0.50588 -0.476779,0.17621 -0.992187,0.17621 a 2.8072292,2.8072292 0 0 1 -0.761736,-0.10266 q -0.366183,-0.10265 -0.683948,-0.29051 a 2.9646562,2.9646562 0 0 1 -0.581554,-0.44979 2.7995562,2.7995562 0 0 1 -0.449527,-0.58129 2.9233812,2.9233812 0 0 1 -0.28866,-0.68792 2.8283958,2.8283958 0 0 1 -0.102659,-0.76358 2.7863271,2.7863271 0 0 1 0.102659,-0.75962 q 0.102658,-0.36433 0.28866,-0.68395 a 2.7995562,2.7995562 0 0 1 0.449527,-0.58155 q 0.263525,-0.26141 0.581554,-0.44741 0.317765,-0.18627 0.683948,-0.28893 a 2.8072292,2.8072292 0 0 1 0.761736,-0.10266 2.8371271,2.8371271 0 0 1 0.992187,0.17648 q 0.476515,0.17621 0.864129,0.50562 l -0.581289,0.9689 a 1.8655771,1.8655771 0 0 0 -0.58129,-0.40111 1.6999479,1.6999479 0 0 0 -0.693737,-0.14525 1.6914812,1.6914812 0 0 0 -0.684213,0.13943 1.8216562,1.8216562 0 0 0 -0.560123,0.37783 q -0.240241,0.23839 -0.379677,0.55827 -0.1397,0.31962 -0.1397,0.68395 a 1.7147646,1.7147646 0 0 0 0.1397,0.69003 1.7983729,1.7983729 0 0 0 0.379677,0.56198 q 0.240506,0.24024 0.560123,0.37967 0.319881,0.1397 0.684213,0.1397 0.209285,0 0.406929,-0.0505 0.197644,-0.0503 0.375973,-0.13944 v -1.58141 z m -10.863527,-2.80221 v 3.33719 a 2.1666729,2.1666729 0 0 1 -0.174625,0.86625 q -0.17436,0.40481 -0.476514,0.70538 -0.302419,0.3003 -0.707496,0.47466 a 2.1666729,2.1666729 0 0 1 -0.866246,0.17436 2.1666729,2.1666729 0 0 1 -0.866246,-0.17436 q -0.404812,-0.17436 -0.705379,-0.47466 -0.300302,-0.30057 -0.474663,-0.70538 a 2.1666729,2.1666729 0 0 1 -0.17436,-0.86625 v -3.33719 h 1.10834 v 3.33719 q 0,0.2286 0.08731,0.43022 a 1.1260667,1.1260667 0 0 0 0.23839,0.35269 1.1199812,1.1199812 0 0 0 0.354541,0.23839 q 0.203465,0.087 0.432065,0.087 a 1.0853208,1.0853208 0 0 0 0.432329,-0.087 1.1199812,1.1199812 0 0 0 0.354542,-0.23839 1.1260667,1.1260667 0 0 0 0.238389,-0.35269 q 0.08705,-0.20162 0.08705,-0.43022 v -3.33719 z m -27.719337,5.55784 h -2.778919 v -5.55784 h 2.778919 a 1.6020521,1.6020521 0 0 1 0.647171,0.13177 q 0.302418,0.13202 0.529166,0.35851 0.226748,0.22675 0.358511,0.52916 a 1.6020521,1.6020521 0 0 1 0.131762,0.64718 1.222375,1.222375 0 0 1 -0.02831,0.25717 1.3993812,1.3993812 0 0 1 -0.01429,0.0606 1.5425208,1.5425208 0 0 1 -0.120121,0.31406 q -0.07752,0.15108 -0.186266,0.27517 -0.108479,0.12409 -0.240242,0.20531 0.135731,0.0738 0.24421,0.19976 0.10848,0.12595 0.186003,0.27702 0.07752,0.15108 0.118268,0.31592 a 1.3832417,1.3832417 0 0 1 0.03757,0.23177 1.2154958,1.2154958 0 0 1 0.0032,0.0878 1.6020521,1.6020521 0 0 1 -0.131767,0.64744 q -0.131763,0.30215 -0.358511,0.5289 -0.226748,0.22675 -0.529166,0.35851 a 1.6020521,1.6020521 0 0 1 -0.647171,0.13176 z m -1.666611,-4.44526 v 1.11231 h 1.666611 a 0.55906458,0.55906458 0 0 0 0.183621,-0.0299 0.52678542,0.52678542 0 0 0 0.03334,-0.0127 0.54953958,0.54953958 0 0 0 0.176476,-0.11827 0.54424792,0.54424792 0 0 0 0.118269,-0.17833 0.56541458,0.56541458 0 0 0 0.0426,-0.21907 0.55906458,0.55906458 0 0 0 -0.0299,-0.18363 0.52678542,0.52678542 0 0 0 -0.0127,-0.0333 0.54953958,0.54953958 0 0 0 -0.118269,-0.17648 0.54953958,0.54953958 0 0 0 -0.176477,-0.118 0.54742292,0.54742292 0 0 0 -0.202406,-0.0426 0.62679792,0.62679792 0 0 0 -0.01455,0 z m 0,2.22461 v 1.10834 h 1.666611 a 0.55906458,0.55906458 0 0 0 0.183621,-0.0296 0.52678542,0.52678542 0 0 0 0.03334,-0.013 0.54953958,0.54953958 0 0 0 0.176477,-0.11827 0.54953958,0.54953958 0 0 0 0.118268,-0.17622 0.54742292,0.54742292 0 0 0 0.04233,-0.20267 0.62679792,0.62679792 0 0 0 2.65e-4,-0.0145 0.55906458,0.55906458 0 0 0 -0.0299,-0.18335 0.52678542,0.52678542 0 0 0 -0.0127,-0.0336 0.54953958,0.54953958 0 0 0 -0.118269,-0.17621 0.54953958,0.54953958 0 0 0 -0.176477,-0.11827 0.54742292,0.54742292 0 0 0 -0.202406,-0.0426 0.62679792,0.62679792 0 0 0 -0.01455,0 z"
       vector-effect="non-scaling-stroke"
       id="path191"
       style="font-size:12px;display:inline;fill:#000000;fill-rule:evenodd;stroke:#000000;stroke-width:0.0661458mm;stroke-linecap:round" /><path
       d="m 56.484666,87.411758 h -0.396875 v -5.532437 h 0.777875 l 1.817687,4.953 1.817688,-4.953 h 0.777875 v 5.532437 h -0.396875 v -5.135562 h -0.119063 l -1.825625,4.960937 h -0.508 l -1.825625,-4.960937 h -0.119062 z m 6.604,0 h -0.396875 v -5.532437 h 0.777875 l 1.817687,4.953 1.817687,-4.953 h 0.777875 v 5.532437 H 67.48604 v -5.135562 h -0.119062 l -1.825625,4.960937 h -0.508 l -1.825625,-4.960937 h -0.119062 z m 19.423062,0 h -0.396875 v -5.532437 h 0.841375 l 2.460625,5.167312 h 0.1905 v -5.167312 h 0.39688 v 5.532437 h -0.825505 l -2.4765,-5.167312 h -0.1905 z m -9.929813,0 H 69.29579 v -5.532437 h 3.286125 v 0.365125 h -2.88925 v 2.166937 h 2.413 v 0.357188 h -2.413 v 2.278062 h 2.88925 z m 1.49225,0 H 73.67729 v -5.532437 h 2.008188 q 0.442383,0 0.769937,0.102658 a 1.6240125,1.6240125 0 0 1 0.170657,0.06403 q 0.377031,0.166688 0.563562,0.523875 0.186531,0.357188 0.186531,0.92075 0,0.592138 -0.229922,1.007269 a 1.5583958,1.5583958 0 0 1 -0.02805,0.04842 1.1485562,1.1485562 0 0 1 -0.525727,0.457464 1.685925,1.685925 0 0 1 -0.319617,0.106098 l 1.190625,2.301875 H 77.01104 l -1.150937,-2.230439 h -1.785938 z m -19.407187,0 h -0.396875 v -5.532437 h 0.396875 z m 26.027062,0 h -0.396875 v -5.532437 h 0.396875 z m -6.619875,-5.17525 v 2.579688 h 1.61925 q 0.326232,0 0.557478,-0.08017 a 0.95117708,0.95117708 0 0 0 0.192616,-0.09049 q 0.273844,-0.170656 0.396875,-0.468312 a 1.5790333,1.5790333 0 0 0 0.09948,-0.363802 2.1179896,2.1179896 0 0 0 0.02355,-0.322792 q 0,-0.403225 -0.118797,-0.672306 A 0.8842375,0.8842375 0 0 0 76.653853,82.538133 Q 76.42049,82.310856 75.98869,82.254764 a 2.3635229,2.3635229 0 0 0 -0.303212,-0.01826 z"
       vector-effect="non-scaling-stroke"
       id="path202"
       style="font-size:12px;display:inline;fill:#000000;fill-rule:evenodd;stroke:#000000;stroke-width:0.0661458mm;stroke-linecap:round" /><g
       style="clip-rule:evenodd;display:inline;fill-rule:evenodd;image-rendering:optimizeQuality;shape-rendering:geometricPrecision;text-rendering:geometricPrecision"
       id="g1125"
       transform="matrix(0.01696016,0,0,0.01696016,31.132585,80.024768)"><g
         id="g215"><path
           style="opacity:0.999"
           fill="#111b03"
           d="m 930.5,844.5 c -1.442,-1.32 -2.108,-2.986 -2,-5 -6.753,-1.417 -10.42,1.249 -11,8 -2.004,3.854 -3.004,8.02 -3,12.5 0.636,8.286 1.969,16.453 4,24.5 -0.956,9.165 -3.456,17.832 -7.5,26 -6.873,7.205 -13.373,14.705 -19.5,22.5 -8.932,4.155 -18.266,5.489 -28,4 -6.724,1.061 -12.224,4.228 -16.5,9.5 -3.252,4.834 -6.252,9.834 -9,15 -4.538,6.352 -10.704,9.685 -18.5,10 -5.649,-0.813 -11.315,-1.479 -17,-2 -8.624,2.343 -16.624,1.177 -24,-3.5 -6.961,-8.63 -14.295,-16.963 -22,-25 -2.457,-1.562 -5.124,-2.562 -8,-3 -14.76,-0.536 -29.093,-3.203 -43,-8 -16.797,-15.442 -24.297,-34.608 -22.5,-57.5 2.794,-9.507 4.794,-19.174 6,-29 3.726,-4.728 7.059,-9.728 10,-15 4.035,-13.641 7.202,-27.475 9.5,-41.5 -0.801,-11.081 -6.801,-16.748 -18,-17 -31.214,-0.16 -62.381,-1.327 -93.5,-3.5 -8.651,0.323 -13.984,4.656 -16,13 -2.914,15.071 -1.58,29.738 4,44 6.078,12.49 12.411,24.823 19,37 9.55,26.371 3.716,48.871 -17.5,67.5 -3.497,2.583 -7.164,4.916 -11,7 -8.688,0.745 -17.355,0.579 -26,-0.5 -6.398,0.284 -11.898,2.617 -16.5,7 -4.246,5.491 -8.246,11.158 -12,17 -5.171,6.997 -12.004,10.997 -20.5,12 -10.33,-0.9 -20.663,-1.066 -31,-0.5 -12.788,-4.121 -22.621,-11.954 -29.5,-23.5 -2.205,-2.54 -4.705,-4.707 -7.5,-6.5 -7.24,-1.81 -14.573,-3.144 -22,-4 -12.129,-6.48 -23.296,-14.313 -33.5,-23.5 -3.906,-9.959 -6.073,-20.293 -6.5,-31 1.623,-16.022 3.457,-32.022 5.5,-48 1.437,-11.843 -0.229,-23.177 -5,-34 -1.857,-2.7 -4.357,-4.366 -7.5,-5 -0.606,-2.905 -2.439,-4.571 -5.5,-5 -2.328,0.499 -3.828,1.832 -4.5,4 -2.359,0.676 -4.692,1.509 -7,2.5 -4.3,5.301 -8.966,10.301 -14,15 -8.246,3.368 -15.746,7.868 -22.5,13.5 -1.562,2.457 -2.562,5.124 -3,8 3.395,28.567 -7.771,49.067 -33.5,61.5 -23.025,10.105 -41.692,4.771 -56,-16 -7.059,-4.815 -14.893,-6.981 -23.5,-6.5 -22.545,5.785 -41.545,0.119 -57,-17 -5.194,-9.054 -9.861,-18.388 -14,-28 -4.907,-6.854 -11.407,-9.02 -19.5,-6.5 -4.8413,2.921 -9.8413,5.588 -15,8 -5.2625,1.439 -10.5958,1.772 -16,1 -23.6526,-4.329 -39.1526,-17.829 -46.5,-40.5 -2.5564,-13.341 0.4436,-25.341 9,-36 10.1371,-9.136 19.9705,-18.636 29.5,-28.5 8.3978,-5.063 16.2311,-10.896 23.5,-17.5 5.3626,-8.513 5.6959,-17.18 1,-26 C 74.8544,667.695 62.1877,653.695 51,638.5 17.4408,580.086 23.6074,526.253 69.5,477 c 17.1312,-14.059 36.798,-22.392 59,-25 13.678,-0.39 27.345,-0.39 41,0 4.651,-0.742 8.484,-2.908 11.5,-6.5 8.078,-16.489 16.411,-32.823 25,-49 12.456,-19.717 26.956,-37.884 43.5,-54.5 26.086,-20.749 51.586,-42.249 76.5,-64.5 5.667,-7 11.333,-14 17,-21 20.588,-32.848 41.921,-65.181 64,-97 2.455,-4.031 4.121,-8.364 5,-13 3.036,-50.9435 26.869,-88.4435 71.5,-112.5 54.094,-20.1827 101.427,-9.8493 142,31 2.217,1.2754 4.551,2.2754 7,3 23.809,1.9776 47.643,3.811 71.5,5.5 7.407,-0.3579 14.24,-2.5245 20.5,-6.5 7.704,-7.3726 15.704,-14.3726 24,-21 35.184,-21.8463 71.184,-23.1797 108,-4 28.013,19.8323 43.846,46.999 47.5,81.5 0.333,11.333 0.667,22.667 1,34 0.803,2.744 1.803,5.411 3,8 16.946,15.613 33.279,31.946 49,49 11.263,13.262 20.93,27.595 29,43 0.226,4.387 0.726,8.721 1.5,13 -4.144,13.538 -7.977,27.204 -11.5,41 -4.219,11.448 -10.219,21.781 -18,31 -3.657,8.656 -8.324,16.656 -14,24 -8.667,8 -17.333,16 -26,24 -4.333,5.667 -8.667,11.333 -13,17 -8.782,7.776 -16.449,16.442 -23,26 -0.958,4.623 -1.625,9.29 -2,14 -10.701,17.011 -7.868,31.178 8.5,42.5 5.55,4.025 11.716,6.525 18.5,7.5 13.712,-3.552 27.545,-6.719 41.5,-9.5 55.35,-9.227 98.52,9.273 129.5,55.5 19.94,37.71 19.27,75.043 -2,112 -4.91,7.579 -10.58,14.579 -17,21 -7.96,11.524 -6.79,22.024 3.5,31.5 9.66,4.828 18.99,10.161 28,16 8.17,6.833 16.33,13.667 24.5,20.5 8.78,10.226 14.95,21.892 18.5,35 -4.51,16.537 -13.18,30.37 -26,41.5 -9.78,6.779 -20.45,8.779 -32,6 -8.51,-3.837 -17.34,-6.67 -26.5,-8.5 -6,0.332 -10.66,2.998 -14,8 -4.03,11.055 -9.36,21.388 -16,31 -15.07,15.15 -32.9,19.65 -53.5,13.5 -4.598,-2.27 -8.931,-4.937 -13,-8 -4.3,-5.301 -8.966,-10.301 -14,-15 -2.576,-1.456 -5.242,-2.623 -8,-3.5 z"
           id="path213" /></g><g
         id="g219"><path
           style="opacity:1"
           fill="#08a963"
           d="m 652.5,116.5 c 3.474,1.025 7.14,1.692 11,2 42.166,4.903 82.5,15.736 121,32.5 12.041,6.021 24.041,12.021 36,18 7.695,5.042 15.362,10.042 23,15 3.699,3.507 7.366,7.007 11,10.5 -11.798,16.014 -8.798,28.181 9,36.5 3.711,0.825 7.378,0.659 11,-0.5 6.383,-3.049 11.05,-7.716 14,-14 7.376,7.709 15.376,14.709 24,21 0,1 0,2 0,3 1.052,-0.149 2.052,0.017 3,0.5 9.247,9.079 17.58,18.912 25,29.5 -15.051,3.667 -30.385,6.334 -46,8 -4.014,-0.166 -8.014,10e-4 -12,0.5 -0.916,0.278 -1.582,0.778 -2,1.5 -2.333,0 -4.667,0 -7,0 -6.178,0.344 -12.178,1.011 -18,2 -7.98,0.887 -15.98,1.553 -24,2 -15.204,-0.392 -30.204,0.275 -45,2 -3,0 -6,0 -9,0 -44.004,0.054 -88.004,-0.28 -132,-1 -12.704,0.275 -25.37,-0.058 -38,-1 -4.769,-1.389 -9.769,-2.056 -15,-2 -13.28,0.529 -26.28,-0.471 -39,-3 -9.136,-1.515 -18.469,-2.515 -28,-3 -7.804,-1.484 -15.804,-2.484 -24,-3 -11.386,-1.043 -22.719,-2.543 -34,-4.5 -2,-0.667 -4,-1.333 -6,-2 -3.913,-1.909 -7.246,-4.576 -10,-8 -0.948,-0.483 -1.948,-0.649 -3,-0.5 0,-1 0,-2 0,-3 -4.742,-2.555 -9.408,-5.388 -14,-8.5 -6.745,-1.702 -12.578,-0.202 -17.5,4.5 -0.901,2.571 -2.234,4.904 -4,7 -0.667,5.667 -0.667,11.333 0,17 9.732,12.741 21.565,22.907 35.5,30.5 6.782,2.54 13.782,3.707 21,3.5 1.602,1.574 3.602,2.241 6,2 4.911,1.298 9.911,2.631 15,4 20.047,41.187 43.547,80.521 70.5,118 0.817,3.464 0.483,6.798 -1,10 -13.37,17.498 -25.203,35.831 -35.5,55 -3.096,3.458 -5.429,7.458 -7,12 -7.287,13.18 -13.62,26.847 -19,41 -1.42,2.387 -2.753,4.72 -4,7 -3.749,-2.036 -7.749,-3.869 -12,-5.5 -8.138,-16.803 -20.138,-20.136 -36,-10 -10.718,2.872 -21.052,6.539 -31,11 -13.985,4.203 -27.985,8.536 -42,13 -5.988,3.409 -7.488,8.242 -4.5,14.5 2.794,3.945 5.294,7.945 7.5,12 5.35,3.028 10.684,6.028 16,9 11.241,22.023 23.241,43.69 36,65 9.336,14.671 19.169,29.004 29.5,43 2.869,3.204 6.035,6.037 9.5,8.5 9.501,4.037 18.834,8.37 28,13 6.947,5.452 14.28,10.285 22,14.5 0,1 0,2 0,3 1.679,-0.215 2.679,0.452 3,2 1.002,1.511 1.669,3.178 2,5 1,0 2,0 3,0 0.274,2.481 1.607,4.147 4,5 2.726,3.096 5.226,6.43 7.5,10 3.602,6.313 6.102,12.98 7.5,20 1.088,5.103 2.088,10.103 3,15 7.881,23.208 16.214,46.208 25,69 0.754,4.963 1.087,9.963 1,15 -5.122,10.549 -13.455,14.049 -25,10.5 -4.51,-1.843 -7.677,-5.01 -9.5,-9.5 -0.169,-12.507 -0.669,-24.84 -1.5,-37 0.285,-3.329 -0.382,-6.329 -2,-9 0.417,-4.317 -0.25,-8.317 -2,-12 -1.928,-4.753 -3.428,-9.753 -4.5,-15 -1.852,-4.523 -4.518,-8.523 -8,-12 -0.483,-0.948 -0.649,-1.948 -0.5,-3 -4.168,-2.221 -8.668,-3.554 -13.5,-4 -3.98,-0.293 -7.146,1.04 -9.5,4 -0.617,0.111 -1.117,0.444 -1.5,1 -0.897,10.882 -0.397,21.549 1.5,32 0.288,10.177 0.955,20.177 2,30 -0.206,6.896 0.461,13.563 2,20 0.85,7.299 1.183,14.632 1,22 0,7 0,14 0,21 -2.451,7.259 -7.617,10.925 -15.5,11 -7.983,0.02 -13.317,-3.646 -16,-11 -0.816,-5.184 -0.65,-10.184 0.5,-15 1.557,-5.761 2.224,-11.761 2,-18 2.126,-14.828 2.46,-29.828 1,-45 0.285,-3.329 -0.382,-6.329 -2,-9 0.417,-4.317 -0.25,-8.317 -2,-12 -1.816,-9.268 -5.316,-17.935 -10.5,-26 -2.483,-2.989 -5.65,-4.322 -9.5,-4 -2.804,-1.138 -5.804,-1.305 -9,-0.5 -2.153,0.099 -3.819,0.933 -5,2.5 -1.012,1.372 -2.012,2.705 -3,4 -0.658,1.293 -0.992,2.793 -1,4.5 0.537,7.044 1.537,13.877 3,20.5 0.934,7.611 1.267,15.278 1,23 -0.206,6.896 0.461,13.563 2,20 4.015,12.417 0.349,21.584 -11,27.5 -8.438,2.263 -15.271,0.096 -20.5,-6.5 -0.936,-3.614 -1.436,-7.28 -1.5,-11 1.117,-3.795 1.783,-7.795 2,-12 7.558,-33.305 5.058,-65.638 -7.5,-97 -3.702,-7.268 -7.869,-14.268 -12.5,-21 0.209,-1.422 0.709,-2.755 1.5,-4 3.439,-4.412 6.939,-8.745 10.5,-13 1.161,-4.295 1.328,-8.629 0.5,-13 -54.629,-47.934 -95.462,-105.601 -122.5,-173 8.028,-8.515 17.361,-15.349 28,-20.5 20.624,-8.147 41.29,-15.981 62,-23.5 3.417,0.477 6.084,-0.523 8,-3 18.921,-6.591 37.588,-14.091 56,-22.5 4.468,-2.403 8.801,-5.07 13,-8 3.741,-3.516 7.408,-7.016 11,-10.5 3.351,-2.387 5.017,-5.72 5,-10 1.295,-5.224 1.128,-10.557 -0.5,-16 -0.708,-0.881 -1.542,-1.547 -2.5,-2 -0.904,-0.709 -1.237,-1.709 -1,-3 -6.168,-4.142 -12.835,-4.975 -20,-2.5 -8.723,6.025 -17.723,11.525 -27,16.5 -2.991,-0.334 -5.324,0.666 -7,3 -1.43,1.037 -3.097,1.704 -5,2 -2.772,0.259 -5.105,1.259 -7,3 -2.654,1.215 -5.32,2.215 -8,3 -2.772,0.259 -5.105,1.259 -7,3 -14.641,6.096 -29.308,11.763 -44,17 -3.27,0.889 -6.27,2.223 -9,4 -6.816,2.858 -13.816,5.524 -21,8 13.717,-16.451 28.55,-31.784 44.5,-46 35.253,-39.378 53.919,-85.712 56,-139 -3.743,-3.759 -8.243,-4.926 -13.5,-3.5 -3.986,0.485 -7.319,2.152 -10,5 -20.118,8.72 -38.784,19.554 -56,32.5 -2.889,0.889 -5.555,2.222 -8,4 -0.886,0.825 -1.219,1.825 -1,3 -2.401,0.549 -4.735,1.382 -7,2.5 -10.232,8.463 -20.899,16.463 -32,24 -5.89,6.06 -12.223,11.56 -19,16.5 -1.444,1.481 -2.111,1.148 -2,-1 5.67,-8.851 12.337,-17.017 20,-24.5 27.198,-20.528 52.531,-43.195 76,-68 0.948,-0.483 1.948,-0.649 3,-0.5 1.533,-4.372 4.367,-7.706 8.5,-10 1.939,-3.447 4.106,-6.781 6.5,-10 0.825,-0.886 1.825,-1.219 3,-1 1.274,-3.881 3.107,-7.548 5.5,-11 5.044,-5.177 9.378,-10.844 13,-17 15.05,-26.386 31.717,-51.72 50,-76 1.011,-0.837 2.178,-1.17 3.5,-1 -0.38,-2.198 0.287,-3.865 2,-5 0.83,-10.159 1.33,-20.492 1.5,-31 1.569,-4.203 2.402,-8.536 2.5,-13 -0.172,-0.992 0.162,-1.658 1,-2 1.78,-1.49 2.446,-3.49 2,-6 2.979,-8.111 6.813,-15.7779 11.5,-23 1.011,-0.8366 2.178,-1.17 3.5,-1 -0.117,-1.9835 0.55,-3.6502 2,-5 26.07,-27.1726 57.403,-35.3393 94,-24.5 5.775,3.439 11.775,6.439 18,9 17.184,13.427 34.184,27.0937 51,41 6.271,4.464 13.271,7.297 21,8.5 z"
           id="path217" /></g><g
         id="g223"><path
           style="opacity:1"
           fill="#111b04"
           d="m 592.5,96.5 c 0.798,2.4663 2.131,4.466 4,6 -0.237,1.291 0.096,2.291 1,3 -0.446,2.51 0.22,4.51 2,6 0.49,3.155 1.156,6.155 2,9 0.776,7.975 1.11,15.975 1,24 -3.864,28.683 -18.531,49.683 -44,63 -2.421,1.391 -5.088,2.225 -8,2.5 -0.881,0.708 -1.547,1.542 -2,2.5 -44.697,9.578 -76.03,-6.422 -94,-48 0.374,-4.147 -0.626,-7.814 -3,-11 -4.132,-35.732 8.534,-63.565 38,-83.5 38.227,-18.723 71.393,-12.223 99.5,19.5 1.032,2.4944 2.198,4.8277 3.5,7 z"
           id="path221" /></g><g
         id="g227"><path
           style="opacity:1"
           fill="#0f9e5f"
           d="m 819.5,90.5 c -0.768,0.7625 -1.268,1.7625 -1.5,3 -0.667,7 -0.667,14 0,21 0.232,1.237 0.732,2.237 1.5,3 0,8 0,16 0,24 -28.117,-10.029 -56.117,-20.362 -84,-31 17.279,-41.6461 48.279,-58.1461 93,-49.5 1.825,1.4659 2.325,3.2992 1.5,5.5 -2.342,3.6725 -4.676,7.3392 -7,11 -1.662,4.228 -2.829,8.5613 -3.5,13 z"
           id="path225" /></g><g
         id="g231"><path
           style="opacity:1"
           fill="#e8f7ed"
           d="m 533.5,123.5 c -0.296,-1.903 -0.963,-3.57 -2,-5 -7.984,-9.141 -17.984,-12.308 -30,-9.5 -4.011,1.442 -7.678,3.442 -11,6 -5.58,1.261 -7.413,-0.906 -5.5,-6.5 17.4,-22.3733 39.233,-28.2066 65.5,-17.5 16.292,9.981 23.126,24.481 20.5,43.5 -9.27,14.382 -20.103,15.715 -32.5,4 -1.984,-4.96 -3.65,-9.96 -5,-15 z"
           id="path229" /></g><g
         id="g235"><path
           style="opacity:1"
           fill="#e2f1e6"
           d="m 867.5,96.5 c -0.446,2.5101 0.22,4.51 2,6 0.176,3.227 0.843,6.227 2,9 1.938,7.877 2.438,15.877 1.5,24 -1.263,2.297 -3.097,3.13 -5.5,2.5 -16.482,-13.434 -20.315,-29.934 -11.5,-49.5 2.064,-1.0914 4.231,-1.2581 6.5,-0.5 1.392,3.081 3.059,5.9144 5,8.5 z"
           id="path233" /></g><g
         id="g239"><path
           style="opacity:1"
           fill="#0f572b"
           d="m 592.5,96.5 c 2.238,1.3527 3.571,3.3527 4,6 -1.869,-1.534 -3.202,-3.5337 -4,-6 z"
           id="path237" /></g><g
         id="g243"><path
           style="opacity:1"
           fill="#11582e"
           d="m 819.5,90.5 c -1.097,8.9844 -1.097,17.984 0,27 -0.768,-0.763 -1.268,-1.763 -1.5,-3 -0.667,-7 -0.667,-14 0,-21 0.232,-1.2375 0.732,-2.2375 1.5,-3 z"
           id="path241" /></g><g
         id="g247"><path
           style="opacity:1"
           fill="#798674"
           d="m 867.5,96.5 c 0.958,1.8024 1.625,3.802 2,6 -1.78,-1.49 -2.446,-3.4899 -2,-6 z"
           id="path245" /></g><g
         id="g251"><path
           style="opacity:1"
           fill="#c7f5d7"
           d="m 735.5,110.5 c 27.883,10.638 55.883,20.971 84,31 31.918,21.448 63.251,43.615 94,66.5 15.676,14.746 29.176,31.246 40.5,49.5 0.784,3.26 0.617,6.427 -0.5,9.5 -4.492,0.891 -8.826,2.058 -13,3.5 -7.42,-10.588 -15.753,-20.421 -25,-29.5 -0.948,-0.483 -1.948,-0.649 -3,-0.5 0,-1 0,-2 0,-3 -8.624,-6.291 -16.624,-13.291 -24,-21 1.382,-15.575 -5.785,-23.575 -21.5,-24 -4.296,-0.017 -8.463,0.649 -12.5,2 -3.634,-3.493 -7.301,-6.993 -11,-10.5 -7.638,-4.958 -15.305,-9.958 -23,-15 -11.959,-5.979 -23.959,-11.979 -36,-18 -38.5,-16.764 -78.834,-27.597 -121,-32.5 -0.489,-1.495 -1.155,-2.829 -2,-4 -0.717,-2.453 -1.884,-4.787 -3.5,-7 -0.667,-1.667 -0.667,-3.333 0,-5 3.081,-0.646 6.248,-0.979 9.5,-1 22.991,0.833 45.657,3.833 68,9 z"
           id="path249" /></g><g
         id="g255"><path
           style="opacity:1"
           fill="#768271"
           d="m 869.5,102.5 c 1.618,2.671 2.285,5.671 2,9 -1.157,-2.773 -1.824,-5.773 -2,-9 z"
           id="path253" /></g><g
         id="g259"><path
           style="opacity:1"
           fill="#114922"
           d="m 597.5,105.5 c 1.238,1.714 1.905,3.714 2,6 -1.78,-1.49 -2.446,-3.49 -2,-6 z"
           id="path257" /></g><g
         id="g263"><path
           style="opacity:1"
           fill="#0e5b2e"
           d="m 599.5,111.5 c 0.617,0.111 1.117,0.444 1.5,1 0.497,2.646 0.664,5.313 0.5,8 -0.844,-2.845 -1.51,-5.845 -2,-9 z"
           id="path261" /></g><g
         id="g267"><path
           style="opacity:1"
           fill="#0e6737"
           d="m 451.5,111.5 c 0.446,2.51 -0.22,4.51 -2,6 0.095,-2.286 0.762,-4.286 2,-6 z"
           id="path265" /></g><g
         id="g271"><path
           style="opacity:1"
           fill="#1c4221"
           d="m 661.5,114.5 c 0.845,1.171 1.511,2.505 2,4 -3.86,-0.308 -7.526,-0.975 -11,-2 3.512,0.555 6.512,-0.112 9,-2 z"
           id="path269" /></g><g
         id="g275"><path
           style="opacity:1"
           fill="#687561"
           d="m 531.5,118.5 c 1.037,1.43 1.704,3.097 2,5 -1.713,-1.135 -2.38,-2.802 -2,-5 z"
           id="path273" /></g><g
         id="g279"><path
           style="opacity:1"
           fill="#0f431e"
           d="m 601.5,120.5 c 0.768,0.763 1.268,1.763 1.5,3 0.821,7.179 0.655,14.179 -0.5,21 0.11,-8.025 -0.224,-16.025 -1,-24 z"
           id="path277" /></g><g
         id="g283"><path
           style="opacity:1"
           fill="#0e6232"
           d="m 451.5,153.5 c 2.374,3.186 3.374,6.853 3,11 -1.164,-3.511 -2.164,-7.177 -3,-11 z"
           id="path281" /></g><g
         id="g287"><path
           style="opacity:1"
           fill="#0d5f32"
           d="m 448.5,119.5 c -0.098,4.464 -0.931,8.797 -2.5,13 -0.17,10.508 -0.67,20.841 -1.5,31 -0.167,-10.672 0,-21.339 0.5,-32 1.109,-4.147 2.276,-8.147 3.5,-12 z"
           id="path285" /></g><g
         id="g291"><path
           style="opacity:1"
           fill="#111d05"
           d="m 748.5,222.5 c -2.551,-5.652 -3.551,-11.652 -3,-18 5.124,-11.051 13.79,-14.884 26,-11.5 16.058,6.949 19.891,18.116 11.5,33.5 -12.825,8.875 -24.325,7.542 -34.5,-4 z"
           id="path289" /></g><g
         id="g295"><path
           style="opacity:1"
           fill="#121d06"
           d="m 888.5,216.5 c -2.95,6.284 -7.617,10.951 -14,14 -3.622,1.159 -7.289,1.325 -11,0.5 -17.798,-8.319 -20.798,-20.486 -9,-36.5 4.037,-1.351 8.204,-2.017 12.5,-2 15.715,0.425 22.882,8.425 21.5,24 z"
           id="path293" /></g><g
         id="g299"><path
           style="opacity:1"
           fill="#0d6031"
           d="m 745.5,204.5 c -0.551,6.348 0.449,12.348 3,18 -1.734,-1.59 -2.9,-3.59 -3.5,-6 -0.812,-4.189 -0.645,-8.189 0.5,-12 z"
           id="path297" /></g><g
         id="g303"><path
           style="opacity:1"
           fill="#10552a"
           d="m 558.5,207.5 c -0.453,0.958 -1.119,1.792 -2,2.5 -2.912,0.275 -5.579,1.109 -8,2.5 0.453,-0.958 1.119,-1.792 2,-2.5 2.912,-0.275 5.579,-1.109 8,-2.5 z"
           id="path301" /></g><g
         id="g307"><path
           style="opacity:1"
           fill="#0d743f"
           d="m 501.5,273.5 c 8.196,0.516 16.196,1.516 24,3 -8.294,0.279 -16.294,-0.721 -24,-3 z"
           id="path305" /></g><g
         id="g311"><path
           style="opacity:1"
           fill="#0c7f47"
           d="m 525.5,276.5 c 9.531,0.485 18.864,1.485 28,3 -9.587,0.042 -18.92,-0.958 -28,-3 z"
           id="path309" /></g><g
         id="g315"><path
           style="opacity:1"
           fill="#0d723e"
           d="m 894.5,278.5 c -4.495,0.922 -9.162,1.589 -14,2 0.418,-0.722 1.084,-1.222 2,-1.5 3.986,-0.499 7.986,-0.666 12,-0.5 z"
           id="path313" /></g><g
         id="g319"><path
           style="opacity:1"
           fill="#0c743f"
           d="m 873.5,280.5 c -0.763,0.768 -1.763,1.268 -3,1.5 -4.989,0.499 -9.989,0.666 -15,0.5 5.822,-0.989 11.822,-1.656 18,-2 z"
           id="path317" /></g><g
         id="g323"><path
           style="opacity:1"
           fill="#0e5c2f"
           d="m 592.5,282.5 c 5.231,-0.056 10.231,0.611 15,2 -5.231,0.056 -10.231,-0.611 -15,-2 z"
           id="path321" /></g><g
         id="g327"><path
           style="opacity:1"
           fill="#0d6e3b"
           d="m 831.5,284.5 c -14.829,0.996 -29.829,1.663 -45,2 14.796,-1.725 29.796,-2.392 45,-2 z"
           id="path325" /></g><g
         id="g331"><path
           style="opacity:1"
           fill="#0c7f46"
           d="m 645.5,285.5 c 43.996,0.72 87.996,1.054 132,1 -38.831,1.165 -77.831,1.331 -117,0.5 -5.184,-0.174 -10.184,-0.674 -15,-1.5 z"
           id="path329" /></g><g
         id="g335"><path
           style="opacity:1"
           fill="#026762"
           d="m 301.5,489.5 c -17.132,6.578 -33.132,15.411 -48,26.5 -1.369,1.719 -2.369,3.552 -3,5.5 0.262,-1.478 -0.071,-2.811 -1,-4 -16.352,-8.014 -32.685,-15.68 -49,-23 1.667,0 3.333,0 5,0 3.452,-23.835 9.618,-46.835 18.5,-69 7.775,-14.274 17.608,-26.94 29.5,-38 -0.111,2.148 0.556,2.481 2,1 6.777,-4.94 13.11,-10.44 19,-16.5 11.101,-7.537 21.768,-15.537 32,-24 2.265,-1.118 4.599,-1.951 7,-2.5 -0.219,-1.175 0.114,-2.175 1,-3 2.445,-1.778 5.111,-3.111 8,-4 17.216,-12.946 35.882,-23.78 56,-32.5 2.681,-2.848 6.014,-4.515 10,-5 5.257,-1.426 9.757,-0.259 13.5,3.5 -2.081,53.288 -20.747,99.622 -56,139 -15.95,14.216 -30.783,29.549 -44.5,46 z"
           id="path333" /></g><g
         id="g339"><path
           style="opacity:1"
           fill="#0f4e26"
           d="m 469.5,309.5 c 2.398,-0.241 4.398,0.426 6,2 -2.398,0.241 -4.398,-0.426 -6,-2 z"
           id="path337" /></g><g
         id="g343"><path
           style="opacity:1"
           fill="#5e6956"
           d="m 938.5,314.5 c -3.679,0.224 -7.346,0.558 -11,1 3.544,-2.069 7.21,-2.402 11,-1 z"
           id="path341" /></g><g
         id="g347"><path
           style="opacity:1"
           fill="#e7f8ea"
           d="m 938.5,314.5 c 1.053,3.114 0.387,5.947 -2,8.5 -15.677,25.592 -35.343,47.425 -59,65.5 -1.21,0.432 -2.21,1.099 -3,2 -6.821,5.833 -14.155,10.833 -22,15 -2.044,1.008 -4.044,2.008 -6,3 0,0.667 -0.333,1 -1,1 -2.32,1.726 -4.987,2.393 -8,2 -1.493,-0.812 -2.16,-2.145 -2,-4 0.333,-1 0.667,-2 1,-3 35.942,-22.275 65.275,-51.275 88,-87 1,-0.667 2,-1.333 3,-2 3.654,-0.442 7.321,-0.776 11,-1 z"
           id="path345" /></g><g
         id="g351"><path
           style="opacity:1"
           fill="#3b6819"
           d="m 492.5,315.5 c 9.494,0.813 18.827,1.813 28,3 -9.624,0.408 -18.957,-0.592 -28,-3 z"
           id="path349" /></g><g
         id="g355"><path
           style="opacity:1"
           fill="#82ec3e"
           d="m 490.5,315.5 c 0.667,0 1.333,0 2,0 9.043,2.408 18.376,3.408 28,3 3.836,0.878 7.836,1.544 12,2 11.186,0.996 22.519,1.996 34,3 14.352,0.553 28.686,1.72 43,3.5 22.012,0.825 44.012,1.658 66,2.5 39.011,1.37 78.011,1.037 117,-1 4.048,0.105 8.048,-0.228 12,-1 22.252,0.309 44.252,-1.024 66,-4 4,-0.333 8,-0.667 12,-1 5.993,-0.499 11.993,-0.999 18,-1.5 1.237,-0.232 2.237,-0.732 3,-1.5 1,0 2,0 3,0 4.549,-0.124 8.882,-0.791 13,-2 1.667,0 3.333,0 5,0 -22.725,35.725 -52.058,64.725 -88,87 -0.333,1 -0.667,2 -1,3 -0.16,1.855 0.507,3.188 2,4 0.709,0.904 1.709,1.237 3,1 -9.357,3.165 -19.023,5.665 -29,7.5 -5.129,3.37 -10.795,5.37 -17,6 -8.891,4.898 -18.224,8.898 -28,12 -18.933,5.492 -38.267,9.492 -58,12 -21.7,1.7 -43.367,3.7 -65,6 -7.238,5.044 -9.738,11.878 -7.5,20.5 2.08,4.414 4.58,8.581 7.5,12.5 5.232,3.773 10.232,7.773 15,12 5.715,1.091 11.049,3.091 16,6 21.747,0.71 43.413,-0.29 65,-3 27.388,-12.35 54.721,-24.516 82,-36.5 -1.551,2.413 -2.217,5.079 -2,8 -4.078,12.653 -7.078,25.653 -9,39 -1.989,3.997 -2.989,8.33 -3,13 0.067,1.459 -0.266,2.792 -1,4 -1.618,2.671 -2.285,5.671 -2,9 -3.934,19.251 -8.6,38.251 -14,57 -2.18,4.385 -3.847,9.052 -5,14 -5.253,12.628 -11.253,24.961 -18,37 -0.884,-5.313 -1.05,-10.646 -0.5,-16 -4.49,-1.246 -8.99,-1.08 -13.5,0.5 -28.53,15.209 -59.197,22.376 -92,21.5 -38.873,-0.907 -74.207,-12.073 -106,-33.5 -12.809,-12.706 -27.476,-22.539 -44,-29.5 -0.473,-1.406 -1.473,-2.073 -3,-2 -7,-5 -13,-11 -18,-18 -0.965,-5.183 0.368,-9.516 4,-13 1.247,-2.28 2.58,-4.613 4,-7 5.38,-14.153 11.713,-27.82 19,-41 0.876,0.131 1.543,-0.202 2,-1 2.135,-3.464 3.801,-7.13 5,-11 10.297,-19.169 22.13,-37.502 35.5,-55 1.483,-3.202 1.817,-6.536 1,-10 -26.953,-37.479 -50.453,-76.813 -70.5,-118 z"
           id="path353" /></g><g
         id="g359"><path
           style="opacity:1"
           fill="#3f701b"
           d="m 919.5,317.5 c -4.118,1.209 -8.451,1.876 -13,2 0.763,-0.768 1.763,-1.268 3,-1.5 3.317,-0.498 6.65,-0.665 10,-0.5 z"
           id="path357" /></g><g
         id="g363"><path
           style="opacity:1"
           fill="#40711b"
           d="m 532.5,320.5 c 11.607,-0.397 22.94,0.603 34,3 -11.481,-1.004 -22.814,-2.004 -34,-3 z"
           id="path361" /></g><g
         id="g367"><path
           style="opacity:1"
           fill="#3f701b"
           d="m 903.5,319.5 c -0.763,0.768 -1.763,1.268 -3,1.5 -6.007,0.501 -12.007,1.001 -18,1.5 0.763,-0.768 1.763,-1.268 3,-1.5 6.007,-0.501 12.007,-1.001 18,-1.5 z"
           id="path365" /></g><g
         id="g371"><path
           style="opacity:1"
           fill="#3a6618"
           d="m 870.5,323.5 c -21.748,2.976 -43.748,4.309 -66,4 21.853,-1.318 43.853,-2.651 66,-4 z"
           id="path369" /></g><g
         id="g375"><path
           style="opacity:1"
           fill="#42761d"
           d="m 792.5,328.5 c -38.989,2.037 -77.989,2.37 -117,1 39.003,-0.083 78.003,-0.417 117,-1 z"
           id="path373" /></g><g
         id="g379"><path
           style="opacity:1"
           fill="#6a7663"
           d="m 877.5,388.5 c -0.321,1.548 -1.321,2.215 -3,2 0.79,-0.901 1.79,-1.568 3,-2 z"
           id="path377" /></g><g
         id="g383"><path
           style="opacity:1"
           fill="#606c58"
           d="m 852.5,405.5 c -1.187,2.475 -3.187,3.475 -6,3 1.956,-0.992 3.956,-1.992 6,-3 z"
           id="path381" /></g><g
         id="g387"><path
           style="opacity:1"
           fill="#b0e197"
           d="m 845.5,409.5 c -0.057,1.109 -0.39,2.109 -1,3 -1.333,0 -2.667,0 -4,0 -1.291,0.237 -2.291,-0.096 -3,-1 3.013,0.393 5.68,-0.274 8,-2 z"
           id="path385" /></g><g
         id="g391"><path
           style="opacity:1"
           fill="#4ebb01"
           d="m 840.5,412.5 c 1.333,0 2.667,0 4,0 0.091,12.008 0.425,24.008 1,36 -8.039,6.344 -16.039,12.678 -24,19 -27.279,11.984 -54.612,24.15 -82,36.5 -21.587,2.71 -43.253,3.71 -65,3 -4.951,-2.909 -10.285,-4.909 -16,-6 -4.768,-4.227 -9.768,-8.227 -15,-12 -2.92,-3.919 -5.42,-8.086 -7.5,-12.5 -2.238,-8.622 0.262,-15.456 7.5,-20.5 21.633,-2.3 43.3,-4.3 65,-6 19.733,-2.508 39.067,-6.508 58,-12 9.776,-3.102 19.109,-7.102 28,-12 6.205,-0.63 11.871,-2.63 17,-6 9.977,-1.835 19.643,-4.335 29,-7.5 z"
           id="path389" /></g><g
         id="g395"><path
           style="opacity:1"
           fill="#103918"
           d="m 457.5,435.5 c 0.958,0.453 1.792,1.119 2.5,2 1.628,5.443 1.795,10.776 0.5,16 0.551,-6.347 -0.449,-12.347 -3,-18 z"
           id="path393" /></g><g
         id="g399"><path
           style="opacity:1"
           fill="#0e5f31"
           d="m 409.5,446.5 c -2.149,1.236 -4.482,2.236 -7,3 1.676,-2.334 4.009,-3.334 7,-3 z"
           id="path397" /></g><g
         id="g403"><path
           style="opacity:1"
           fill="#c9f7d7"
           d="m 845.5,448.5 c 0,0.667 0,1.333 0,2 -1.489,3.736 -2.156,7.736 -2,12 0,0.667 0,1.333 0,2 -2.518,4.561 -3.518,9.561 -3,15 -1.424,2.015 -2.09,4.348 -2,7 -1.7,6.814 -3.033,13.814 -4,21 0,0.667 0,1.333 0,2 -1.574,1.602 -2.241,3.602 -2,6 -1.081,3.127 -1.747,6.46 -2,10 -1.618,2.671 -2.285,5.671 -2,9 0,0.667 0,1.333 0,2 -2.466,3.518 -3.466,7.518 -3,12 -2.376,3.905 -3.376,8.239 -3,13 -2.192,3.598 -3.192,7.598 -3,12 -3.806,13.843 -8.139,27.51 -13,41 -1.579,2.8 -2.912,5.8 -4,9 -1.037,1.43 -1.704,3.097 -2,5 -1.604,0.787 -2.271,2.12 -2,4 -0.667,1.333 -1.333,2.667 -2,4 -1.741,2.424 -3.075,5.09 -4,8 -4.928,7.618 -9.928,15.285 -15,23 -2.032,0.548 -3.032,1.881 -3,4 -17.753,20.492 -38.753,36.492 -63,48 -0.333,0 -0.667,0 -1,0 19.349,-23.353 38.349,-47.02 57,-71 6.747,-12.039 12.747,-24.372 18,-37 3.303,-3.966 4.969,-8.633 5,-14 5.4,-18.749 10.066,-37.749 14,-57 1.157,-2.773 1.824,-5.773 2,-9 0.734,-1.208 1.067,-2.541 1,-4 2.075,-3.975 3.075,-8.308 3,-13 3.546,-7.917 6.046,-16.25 7.5,-25 0.994,-4.618 1.494,-9.285 1.5,-14 -0.217,-2.921 0.449,-5.587 2,-8 7.961,-6.322 15.961,-12.656 24,-19 z"
           id="path401" /></g><g
         id="g407"><path
           style="opacity:1"
           fill="#114922"
           d="m 397.5,451.5 c -1.895,1.741 -4.228,2.741 -7,3 1.895,-1.741 4.228,-2.741 7,-3 z"
           id="path405" /></g><g
         id="g411"><path
           style="opacity:1"
           fill="#0f6938"
           d="m 460.5,453.5 c 0.017,4.28 -1.649,7.613 -5,10 1.684,-3.368 3.35,-6.701 5,-10 z"
           id="path409" /></g><g
         id="g415"><path
           style="opacity:1"
           fill="#33452d"
           d="m 845.5,450.5 c 0.589,4.471 -0.077,8.471 -2,12 -0.156,-4.264 0.511,-8.264 2,-12 z"
           id="path413" /></g><g
         id="g419"><path
           style="opacity:1"
           fill="#0f4f26"
           d="m 382.5,457.5 c -1.895,1.741 -4.228,2.741 -7,3 1.895,-1.741 4.228,-2.741 7,-3 z"
           id="path417" /></g><g
         id="g423"><path
           style="opacity:1"
           fill="#556c52"
           d="m 843.5,464.5 c -0.842,5.149 -1.842,10.149 -3,15 -0.518,-5.439 0.482,-10.439 3,-15 z"
           id="path421" /></g><g
         id="g427"><path
           style="opacity:1"
           fill="#104a23"
           d="m 331.5,477.5 c -2.434,2.374 -5.434,3.708 -9,4 2.73,-1.777 5.73,-3.111 9,-4 z"
           id="path425" /></g><g
         id="g431"><path
           style="opacity:1"
           fill="#5b7358"
           d="m 840.5,479.5 c 0.09,2.652 -0.576,4.985 -2,7 -0.09,-2.652 0.576,-4.985 2,-7 z"
           id="path429" /></g><g
         id="g435"><path
           style="opacity:1"
           fill="#09a963"
           d="m 154.5,484.5 c 2.623,1.765 5.623,2.432 9,2 26.977,13.323 53.977,26.989 81,41 -3.918,7.227 -7.752,14.561 -11.5,22 -1.793,7.047 -3.793,14.047 -6,21 -0.944,6.662 -1.777,13.329 -2.5,20 -0.988,5.14 -1.321,10.474 -1,16 -12,0 -24,0 -36,0 -5.831,-0.915 -11.831,-1.582 -18,-2 -22.773,-3.866 -44.106,-11.366 -64,-22.5 -16.5324,-12.013 -29.5324,-26.847 -39,-44.5 5.4809,-13.454 12.8143,-25.787 22,-37 4.3429,-2.149 8.3429,-4.982 12,-8.5 4,-2 8,-4 12,-6 1.973,-0.495 3.973,-0.662 6,-0.5 3.227,-0.176 6.227,-0.843 9,-2 8.913,-1.341 17.913,-1.008 27,1 z"
           id="path433" /></g><g
         id="g439"><path
           style="opacity:1"
           fill="#bbf6b6"
           d="m 819.5,475.5 c -0.006,4.715 -0.506,9.382 -1.5,14 -1.454,8.75 -3.954,17.083 -7.5,25 1.922,-13.347 4.922,-26.347 9,-39 z"
           id="path437" /></g><g
         id="g443"><path
           style="opacity:1"
           fill="#0d6837"
           d="m 127.5,483.5 c -2.773,1.157 -5.773,1.824 -9,2 2.671,-1.618 5.671,-2.285 9,-2 z"
           id="path441" /></g><g
         id="g447"><path
           style="opacity:1"
           fill="#245d35"
           d="m 154.5,484.5 c 4.824,0.492 9.49,1.159 14,2 -1.667,0 -3.333,0 -5,0 -3.377,0.432 -6.377,-0.235 -9,-2 z"
           id="path445" /></g><g
         id="g451"><path
           style="opacity:1"
           fill="#c2f2d4"
           d="m 163.5,486.5 c 1.667,0 3.333,0 5,0 2.107,0.968 4.441,1.302 7,1 3.007,1.675 6.34,2.341 10,2 5.203,0.929 10.203,2.596 15,5 16.315,7.32 32.648,14.986 49,23 0.929,1.189 1.262,2.522 1,4 0.219,1.175 -0.114,2.175 -1,3 -1.195,1.797 -2.862,2.797 -5,3 -27.023,-14.011 -54.023,-27.677 -81,-41 z"
           id="path449" /></g><g
         id="g455"><path
           style="opacity:1"
           fill="#678267"
           d="m 175.5,487.5 c 3.578,0.049 6.911,0.715 10,2 -3.66,0.341 -6.993,-0.325 -10,-2 z"
           id="path453" /></g><g
         id="g459"><path
           style="opacity:1"
           fill="#50674d"
           d="m 838.5,486.5 c 0.165,3.682 -10e-4,7.348 -0.5,11 -1.692,3.24 -2.859,6.573 -3.5,10 0.967,-7.186 2.3,-14.186 4,-21 z"
           id="path457" /></g><g
         id="g463"><path
           style="opacity:1"
           fill="#55d24e"
           d="m 524.5,498.5 c -1.199,3.87 -2.865,7.536 -5,11 -0.457,0.798 -1.124,1.131 -2,1 1.571,-4.542 3.904,-8.542 7,-12 z"
           id="path461" /></g><g
         id="g467"><path
           style="opacity:1"
           fill="#0e6837"
           d="m 375.5,504.5 c -1.916,2.477 -4.583,3.477 -8,3 2.576,-0.988 5.243,-1.988 8,-3 z"
           id="path465" /></g><g
         id="g471"><path
           style="opacity:1"
           fill="#556d52"
           d="m 834.5,509.5 c 0.241,2.398 -0.426,4.398 -2,6 -0.241,-2.398 0.426,-4.398 2,-6 z"
           id="path469" /></g><g
         id="g475"><path
           style="opacity:1"
           fill="#c1f1d2"
           d="m 937.5,596.5 c 0.111,13.348 -0.223,26.681 -1,40 0,0.667 0,1.333 0,2 -1,2 -2,4 -3,6 1.202,-29.076 -4.298,-56.743 -16.5,-83 -3.787,-5.456 -7.954,-10.623 -12.5,-15.5 -10.896,-8.408 -21.896,-16.575 -33,-24.5 -0.273,-6.87 2.727,-8.703 9,-5.5 14.663,8.663 27.497,19.496 38.5,32.5 9.572,14.703 15.738,30.703 18.5,48 z"
           id="path473" /></g><g
         id="g479"><path
           style="opacity:1"
           fill="#114c26"
           d="m 962.5,518.5 c 3.484,-0.665 7.151,-0.999 11,-1 6.559,-0.089 12.892,0.577 19,2 -9.994,-0.49 -19.994,-0.823 -30,-1 z"
           id="path477" /></g><g
         id="g483"><path
           style="opacity:1"
           fill="#139e60"
           d="m 962.5,518.5 c 10.006,0.177 20.006,0.51 30,1 8.73,1.701 17.06,4.534 25,8.5 12.76,6.482 23.26,15.648 31.5,27.5 2.45,4.926 4.62,9.926 6.5,15 0.16,1.373 -0.01,2.707 -0.5,4 -19.48,25 -44.65,33.666 -75.5,26 0,-0.333 0,-0.667 0,-1 0.166,-4.346 -10e-4,-8.679 -0.5,-13 -0.278,-0.916 -0.778,-1.582 -1.5,-2 -2.151,-11.445 -5.484,-22.445 -10,-33 14.494,-0.757 27.16,3.409 38,12.5 4.33,5.667 8.67,11.333 13,17 10.65,2.176 16.32,-2.158 17,-13 -0.49,-5.835 -2.83,-10.835 -7,-15 -20.56,-17.761 -44.225,-24.261 -71,-19.5 -1.648,-1.277 -3.482,-2.277 -5.5,-3 -0.639,-2.612 -1.806,-4.946 -3.5,-7 0.674,-3.166 2.674,-4.666 6,-4.5 2.646,-0.497 5.313,-0.664 8,-0.5 z"
           id="path481" /></g><g
         id="g487"><path
           style="opacity:1"
           fill="#b9f6b4"
           d="m 810.5,514.5 c 0.075,4.692 -0.925,9.025 -3,13 0.011,-4.67 1.011,-9.003 3,-13 z"
           id="path485" /></g><g
         id="g491"><path
           style="opacity:1"
           fill="#08a963"
           d="m 871.5,521.5 c 11.104,7.925 22.104,16.092 33,24.5 4.546,4.877 8.713,10.044 12.5,15.5 12.202,26.257 17.702,53.924 16.5,83 0.105,4.048 -0.228,8.048 -1,12 -2.985,9.959 -5.985,19.959 -9,30 -1.574,1.602 -2.241,3.602 -2,6 -6.866,12.218 -14.199,24.218 -22,36 -1.968,7.933 -2.635,16.266 -2,25 -4.198,8.275 -7.531,16.942 -10,26 -2.857,5.583 -4.523,11.583 -5,18 -0.333,2 -0.667,4 -1,6 -0.722,0.418 -1.222,1.084 -1.5,2 -0.499,4.321 -0.666,8.654 -0.5,13 -0.768,0.763 -1.268,1.763 -1.5,3 -1.21,22.01 1.29,43.51 7.5,64.5 -2.377,13.704 -10.377,19.037 -24,16 -4.007,-3.002 -6.841,-6.835 -8.5,-11.5 -0.824,-9.176 -0.657,-18.176 0.5,-27 1.533,-15.477 2.533,-31.144 3,-47 -10e-4,-3.849 -0.335,-7.516 -1,-11 -2.574,-4.212 -6.408,-6.545 -11.5,-7 -16.051,6.091 -24.218,17.757 -24.5,35 -1.387,2.377 -2.221,5.043 -2.5,8 -0.667,20.333 -0.667,40.667 0,61 0.232,1.237 0.732,2.237 1.5,3 0,1 0,2 0,3 1.144,8.058 1.144,16.058 0,24 -9.099,10.155 -18.599,10.488 -28.5,1 -0.21,-1.558 -0.71,-2.891 -1.5,-4 0,-9 0,-18 0,-27 -0.317,-4.202 0.017,-8.202 1,-12 0.995,-11.828 1.662,-23.828 2,-36 -0.321,-5.195 0.013,-10.195 1,-15 0.823,-9.333 1.49,-18.833 2,-28.5 -0.006,-2.033 -0.339,-3.866 -1,-5.5 -2.494,-4.433 -6.328,-6.1 -11.5,-5 -2.5,0.167 -5,0.333 -7.5,0.5 -5.013,3.349 -9.013,7.682 -12,13 -2.65,7.448 -4.984,14.948 -7,22.5 -1.75,3.683 -2.417,7.683 -2,12 -0.961,1.765 -1.295,3.765 -1,6 -0.809,1.792 -1.309,3.792 -1.5,6 -0.5,9.994 -0.666,19.994 -0.5,30 -4.563,10.382 -12.563,14.215 -24,11.5 -9.268,-5.049 -12.768,-12.882 -10.5,-23.5 0.721,-3.842 2.387,-7.176 5,-10 2.669,-7.7 5.169,-15.366 7.5,-23 1.663,-1.938 2.329,-4.272 2,-7 3.609,-12.611 6.943,-25.278 10,-38 1.723,-2.28 2.389,-4.947 2,-8 5.792,-27.931 20.459,-49.764 44,-65.5 9.329,-5.38 18.996,-9.88 29,-13.5 29.676,-35.903 52.509,-75.903 68.5,-120 1.517,-10.956 1.85,-21.956 1,-33 -2.579,-5.878 -7.079,-9.211 -13.5,-10 -1.74,-2.912 -3.073,-5.912 -4,-9 1.307,-6.58 2.641,-13.247 4,-20 z"
           id="path489" /></g><g
         id="g495"><path
           style="opacity:1"
           fill="#5f785d"
           d="m 830.5,525.5 c -0.176,3.227 -0.843,6.227 -2,9 -0.285,-3.329 0.382,-6.329 2,-9 z"
           id="path493" /></g><g
         id="g499"><path
           style="opacity:1"
           fill="#c7f6d8"
           d="m 967.5,551.5 c -2.702,-5.231 -5.868,-10.231 -9.5,-15 -0.483,-0.948 -0.649,-1.948 -0.5,-3 26.775,-4.761 50.44,1.739 71,19.5 4.17,4.165 6.51,9.165 7,15 -0.68,10.842 -6.35,15.176 -17,13 -4.33,-5.667 -8.67,-11.333 -13,-17 -10.84,-9.091 -23.506,-13.257 -38,-12.5 z"
           id="path497" /></g><g
         id="g503"><path
           style="opacity:1"
           fill="#adf49a"
           d="m 806.5,531.5 c -0.176,3.227 -0.843,6.227 -2,9 -0.285,-3.329 0.382,-6.329 2,-9 z"
           id="path501" /></g><g
         id="g507"><path
           style="opacity:1"
           fill="#048045"
           d="m 494.5,558.5 c -3.632,3.484 -4.965,7.817 -4,13 -0.979,-3.125 -1.313,-6.458 -1,-10 -2.466,-1.134 -5.133,-1.301 -8,-0.5 -0.556,0.383 -0.889,0.883 -1,1.5 -22.315,9.489 -44.648,18.989 -67,28.5 -0.667,0.667 -1.333,1.333 -2,2 -6.306,2.324 -12.639,4.491 -19,6.5 0,1 0,2 0,3 -5.316,-2.972 -10.65,-5.972 -16,-9 -2.206,-4.055 -4.706,-8.055 -7.5,-12 -2.988,-6.258 -1.488,-11.091 4.5,-14.5 14.015,-4.464 28.015,-8.797 42,-13 9.948,-4.461 20.282,-8.128 31,-11 15.862,-10.136 27.862,-6.803 36,10 4.251,1.631 8.251,3.464 12,5.5 z"
           id="path505" /></g><g
         id="g511"><path
           style="opacity:1"
           fill="#026662"
           d="m 66.5,537.5 c 9.4676,17.653 22.4676,32.487 39,44.5 19.894,11.134 41.227,18.634 64,22.5 0.763,0.768 1.763,1.268 3,1.5 4.989,0.499 9.989,0.666 15,0.5 12,0 24,0 36,0 -0.321,-5.526 0.012,-10.86 1,-16 -0.252,31.017 6.082,60.517 19,88.5 -0.259,1.261 -0.926,2.261 -2,3 -14,0.667 -28,0.667 -42,0 -20.424,-1.485 -40.591,-4.651 -60.5,-9.5 -20.323,-6.662 -37.823,-17.662 -52.5,-33 -18.1768,-22.998 -26.0101,-49.331 -23.5,-79 0.8946,-7.849 2.0612,-15.515 3.5,-23 z"
           id="path509" /></g><g
         id="g515"><path
           style="opacity:1"
           fill="#566e54"
           d="m 828.5,536.5 c -1.008,4.096 -2.008,8.096 -3,12 -0.466,-4.482 0.534,-8.482 3,-12 z"
           id="path513" /></g><g
         id="g519"><path
           style="opacity:1"
           fill="#026561"
           d="m 867.5,541.5 c 0.927,3.088 2.26,6.088 4,9 6.421,0.789 10.921,4.122 13.5,10 0.85,11.044 0.517,22.044 -1,33 -15.991,44.097 -38.824,84.097 -68.5,120 0.067,-1.459 -0.266,-2.792 -1,-4 -0.002,-4.521 -0.336,-9.021 -1,-13.5 0.465,-4.882 1.798,-9.382 4,-13.5 9.499,-19.99 18.999,-39.99 28.5,-60 3.979,-12.636 7.979,-25.303 12,-38 3.651,-14.266 6.818,-28.599 9.5,-43 z"
           id="path517" /></g><g
         id="g523"><path
           style="opacity:1"
           fill="#5d755b"
           d="m 825.5,548.5 c -0.84,4.485 -1.84,8.819 -3,13 -0.376,-4.761 0.624,-9.095 3,-13 z"
           id="path521" /></g><g
         id="g527"><path
           style="opacity:1"
           fill="#026762"
           d="m 277.5,551.5 c 27.038,67.399 67.871,125.066 122.5,173 0.828,4.371 0.661,8.705 -0.5,13 -3.561,4.255 -7.061,8.588 -10.5,13 -0.791,1.245 -1.291,2.578 -1.5,4 -24.617,-15.114 -48.284,-31.614 -71,-49.5 -46.735,-42.56 -59.735,-93.727 -39,-153.5 z"
           id="path525" /></g><g
         id="g531"><path
           style="opacity:1"
           fill="#0c461f"
           d="m 489.5,561.5 c -3.07,-0.132 -6.07,0.201 -9,1 0.111,-0.617 0.444,-1.117 1,-1.5 2.867,-0.801 5.534,-0.634 8,0.5 z"
           id="path529" /></g><g
         id="g535"><path
           style="opacity:1"
           fill="#627b61"
           d="m 822.5,561.5 c -0.632,4.202 -1.632,8.202 -3,12 -0.192,-4.402 0.808,-8.402 3,-12 z"
           id="path533" /></g><g
         id="g539"><path
           style="opacity:1"
           fill="#026662"
           d="m 1055.5,570.5 c 11.3,45.208 -3.37,78.708 -44,100.5 -10.35,4.003 -21.014,7.003 -32,9 -2.879,0.957 -5.379,0.457 -7.5,-1.5 -0.504,-5.647 0.496,-10.98 3,-16 3.725,-20.479 5.225,-41.145 4.5,-62 30.85,7.666 56.02,-1 75.5,-26 0.49,-1.293 0.66,-2.627 0.5,-4 z"
           id="path537" /></g><g
         id="g543"><path
           style="opacity:1"
           fill="#106a3b"
           d="m 977.5,584.5 c 0.722,0.418 1.222,1.084 1.5,2 0.499,4.321 0.666,8.654 0.5,13 -0.9,-4.832 -1.566,-9.832 -2,-15 z"
           id="path541" /></g><g
         id="g547"><path
           style="opacity:1"
           fill="#539426"
           d="m 508.5,589.5 c 1.527,-0.073 2.527,0.594 3,2 -1.527,0.073 -2.527,-0.594 -3,-2 z"
           id="path545" /></g><g
         id="g551"><path
           style="opacity:1"
           fill="#4eba01"
           d="m 511.5,591.5 c 16.524,6.961 31.191,16.794 44,29.5 31.793,21.427 67.127,32.593 106,33.5 32.803,0.876 63.47,-6.291 92,-21.5 4.51,-1.58 9.01,-1.746 13.5,-0.5 -0.55,5.354 -0.384,10.687 0.5,16 -18.651,23.98 -37.651,47.647 -57,71 -5.374,1.999 -10.707,3.999 -16,6 -2.235,-0.295 -4.235,0.039 -6,1 -2.652,-0.09 -4.985,0.576 -7,2 -8.237,0.769 -16.237,2.102 -24,4 -36.088,4.035 -71.088,0.035 -105,-12 -1.43,-1.037 -3.097,-1.704 -5,-2 -37.244,-15.399 -66.411,-40.399 -87.5,-75 -0.708,-0.881 -1.542,-1.547 -2.5,-2 -0.925,-2.91 -2.259,-5.576 -4,-8 0,-0.667 -0.333,-1 -1,-1 -0.255,-2.467 -1.255,-4.467 -3,-6 -1.299,-1.653 -0.966,-3.153 1,-4.5 2.851,-1.289 5.851,-1.789 9,-1.5 2.652,0.09 4.985,-0.576 7,-2 1.419,-0.951 3.085,-1.284 5,-1 3.662,-0.223 6.995,-1.223 10,-3 3.301,-2.084 6.968,-3.418 11,-4 2.198,-0.375 4.198,-1.042 6,-2 4.789,-2.558 9.789,-4.892 15,-7 0.333,-1.167 0.667,-2.333 1,-3.5 -0.477,-2.51 -1.477,-4.676 -3,-6.5 z"
           id="path549" /></g><g
         id="g555"><path
           style="opacity:1"
           fill="#b8f6b2"
           d="m 790.5,597.5 c -0.031,5.367 -1.697,10.034 -5,14 1.153,-4.948 2.82,-9.615 5,-14 z"
           id="path553" /></g><g
         id="g559"><path
           style="opacity:1"
           fill="#058563"
           d="m 169.5,604.5 c 6.169,0.418 12.169,1.085 18,2 -5.011,0.166 -10.011,-10e-4 -15,-0.5 -1.237,-0.232 -2.237,-0.732 -3,-1.5 z"
           id="path557" /></g><g
         id="g563"><path
           style="opacity:1"
           fill="#306e02"
           d="m 498.5,608.5 c -1.802,0.958 -3.802,1.625 -6,2 1.49,-1.78 3.49,-2.446 6,-2 z"
           id="path561" /></g><g
         id="g567"><path
           style="opacity:1"
           fill="#388202"
           d="m 481.5,614.5 c -3.005,1.777 -6.338,2.777 -10,3 2.908,-2.105 6.242,-3.105 10,-3 z"
           id="path565" /></g><g
         id="g571"><path
           style="opacity:1"
           fill="#337602"
           d="m 466.5,618.5 c -2.015,1.424 -4.348,2.09 -7,2 2.015,-1.424 4.348,-2.09 7,-2 z"
           id="path569" /></g><g
         id="g575"><path
           style="opacity:1"
           fill="#465b41"
           d="m 806.5,614.5 c -0.56,2.301 -1.06,4.634 -1.5,7 -0.708,0.881 -1.542,1.547 -2.5,2 1.088,-3.2 2.421,-6.2 4,-9 z"
           id="path573" /></g><g
         id="g579"><path
           style="opacity:1"
           fill="#647d63"
           d="m 800.5,628.5 c -0.16,1.653 -0.826,2.986 -2,4 -0.271,-1.88 0.396,-3.213 2,-4 z"
           id="path577" /></g><g
         id="g583"><path
           style="opacity:1"
           fill="#6a866b"
           d="m 937.5,596.5 c 0.666,4.989 0.999,10.156 1,15.5 0.14,8.384 -0.526,16.551 -2,24.5 0.777,-13.319 1.111,-26.652 1,-40 z"
           id="path581" /></g><g
         id="g587"><path
           style="opacity:1"
           fill="#275503"
           d="m 449.5,626.5 c 1.745,1.533 2.745,3.533 3,6 -1.745,-1.533 -2.745,-3.533 -3,-6 z"
           id="path585" /></g><g
         id="g591"><path
           style="opacity:1"
           fill="#214505"
           d="m 453.5,633.5 c 1.741,2.424 3.075,5.09 4,8 -2.637,-1.982 -3.97,-4.648 -4,-8 z"
           id="path589" /></g><g
         id="g595"><path
           style="opacity:1"
           fill="#43573d"
           d="m 796.5,636.5 c -0.03,3.352 -1.363,6.018 -4,8 0.925,-2.91 2.259,-5.576 4,-8 z"
           id="path593" /></g><g
         id="g599"><path
           style="opacity:1"
           fill="#466044"
           d="m 936.5,638.5 c -0.91,6.322 -2.243,12.322 -4,18 0.772,-3.952 1.105,-7.952 1,-12 1,-2 2,-4 3,-6 z"
           id="path597" /></g><g
         id="g603"><path
           style="opacity:1"
           fill="#5e775c"
           d="m 777.5,667.5 c -0.622,1.622 -1.622,2.955 -3,4 -0.032,-2.119 0.968,-3.452 3,-4 z"
           id="path601" /></g><g
         id="g607"><path
           style="opacity:1"
           fill="#104822"
           d="m 923.5,686.5 c 0.241,2.398 -0.426,4.398 -2,6 -0.241,-2.398 0.426,-4.398 2,-6 z"
           id="path605" /></g><g
         id="g611"><path
           style="opacity:1"
           fill="#0a473b"
           d="m 817.5,682.5 c -2.202,4.118 -3.535,8.618 -4,13.5 0.664,4.479 0.998,8.979 1,13.5 -0.793,-4.41 -1.793,-8.91 -3,-13.5 0.775,-5.201 2.775,-9.701 6,-13.5 z"
           id="path609" /></g><g
         id="g615"><path
           style="opacity:1"
           fill="#10713f"
           d="m 157.5,720.5 c -9.033,-0.216 -18.033,0.117 -27,1 0.763,-0.768 1.763,-1.268 3,-1.5 8.177,-0.823 16.177,-0.656 24,0.5 z"
           id="path613" /></g><g
         id="g619"><path
           style="opacity:1"
           fill="#275403"
           d="m 547.5,718.5 c 1.903,0.296 3.57,0.963 5,2 -2.198,0.38 -3.865,-0.287 -5,-2 z"
           id="path617" /></g><g
         id="g623"><path
           style="opacity:1"
           fill="#0f7945"
           d="m 1018.5,720.5 c -8.41,-0.046 -16.74,0.621 -25,2 8.17,-2.948 16.51,-3.615 25,-2 z"
           id="path621" /></g><g
         id="g627"><path
           style="opacity:1"
           fill="#0e9d5e"
           d="m 157.5,720.5 c 21.939,2.14 43.939,3.14 66,3 13.793,1.729 27.793,2.395 42,2 2.743,0.888 5.41,2.055 8,3.5 14.151,12.149 28.318,24.315 42.5,36.5 4.075,8.115 2.241,14.615 -5.5,19.5 -8.639,3.773 -15.472,1.607 -20.5,-6.5 -2.53,-6.838 -4.53,-13.838 -6,-21 -1.209,-1.684 -2.709,-3.017 -4.5,-4 -4.481,-1.148 -9.148,-1.315 -14,-0.5 -0.556,0.383 -0.889,0.883 -1,1.5 -1.67,0.251 -3.17,0.918 -4.5,2 -2.242,2.37 -3.742,5.036 -4.5,8 -0.617,0.111 -1.117,0.444 -1.5,1 -0.815,4.852 -0.648,9.519 0.5,14 6.591,18.68 12.425,37.68 17.5,57 0.764,5.54 0.597,11.04 -0.5,16.5 -4.897,7.938 -11.897,11.938 -21,12 -4.354,-1.526 -8.021,-4.026 -11,-7.5 -2.657,-16.889 -4.157,-33.889 -4.5,-51 -1,-2.667 -2,-5.333 -3,-8 -5.442,-5.877 -11.109,-11.544 -17,-17 -1.562,-2.457 -2.562,-5.124 -3,-8 -0.333,-5 -0.667,-10 -1,-15 -1.319,-1.987 -3.152,-3.154 -5.5,-3.5 -16.542,-2.287 -24.876,4.879 -25,21.5 0.173,4.041 0.673,8.041 1.5,12 3.083,10.253 6.75,20.253 11,30 1.164,16.499 -6.67,23.999 -23.5,22.5 -3.376,-1.05 -6.376,-2.55 -9,-4.5 -0.529,-2.284 -1.529,-4.284 -3,-6 -0.023,-6.212 -0.69,-12.212 -2,-18 -0.347,-8.298 -1.681,-16.298 -4,-24 0.518,-5.427 -0.482,-10.427 -3,-15 0.512,-6.453 -2.155,-10.786 -8,-13 -3.459,-1.365 -6.792,-1.031 -10,1 -5.934,0.758 -11.434,2.758 -16.5,6 -9.372,6.795 -17.8717,14.461 -25.5,23 -16.0296,9.023 -25.6963,4.356 -29,-14 0.7101,-3.089 1.7101,-6.089 3,-9 14.255,-14.967 30.255,-27.8 48,-38.5 6.572,-2.807 13.239,-5.307 20,-7.5 8.967,-0.883 17.967,-1.216 27,-1 z"
           id="path625" /></g><g
         id="g631"><path
           style="opacity:1"
           fill="#0e9d5e"
           d="m 1018.5,720.5 c 27.6,10.725 52.77,25.725 75.5,45 5.47,11.263 3.3,20.763 -6.5,28.5 -4.67,2 -9.33,2 -14,0 -7.22,-6.427 -14.22,-13.094 -21,-20 -6.24,-4.743 -12.91,-8.743 -20,-12 -9.69,-4.907 -17.03,-2.741 -22,6.5 -1.72,2.28 -2.39,4.947 -2,8 0.07,1.459 -0.27,2.792 -1,4 -1.72,3.345 -2.38,7.011 -2,11 -0.96,1.765 -1.29,3.765 -1,6 -0.77,0.763 -1.27,1.763 -1.5,3 -0.5,6.007 -1,12.007 -1.5,18 -1.11,5.485 -2.94,10.818 -5.5,16 -7.684,7.606 -16.184,8.772 -25.5,3.5 -2.7,-1.857 -4.366,-4.357 -5,-7.5 0,-4 0,-8 0,-12 4.616,-9.754 8.449,-19.754 11.5,-30 3.998,-16.554 -1.502,-28.554 -16.5,-36 -1.115,-1.807 -1.781,-3.807 -2,-6 0.898,-6.02 2.732,-11.686 5.5,-17 3.597,-2.235 7.43,-3.569 11.5,-4 5.655,-2.276 11.655,-3.276 18,-3 8.26,-1.379 16.59,-2.046 25,-2 z"
           id="path629" /></g><g
         id="g635"><path
           style="opacity:1"
           fill="#204108"
           d="m 710.5,719.5 c 0.333,0 0.667,0 1,0 -0.453,0.958 -1.119,1.792 -2,2.5 -5.031,1.17 -10.031,2.337 -15,3.5 5.293,-2.001 10.626,-4.001 16,-6 z"
           id="path633" /></g><g
         id="g639"><path
           style="opacity:1"
           fill="#0f7945"
           d="m 223.5,723.5 c 14.186,0.009 28.186,0.676 42,2 -14.207,0.395 -28.207,-0.271 -42,-2 z"
           id="path637" /></g><g
         id="g643"><path
           style="opacity:1"
           fill="#244f04"
           d="m 688.5,726.5 c -2.015,1.424 -4.348,2.09 -7,2 2.015,-1.424 4.348,-2.09 7,-2 z"
           id="path641" /></g><g
         id="g647"><path
           style="opacity:1"
           fill="#057c42"
           d="m 975.5,725.5 c -4.07,0.431 -7.903,1.765 -11.5,4 -2.768,5.314 -4.602,10.98 -5.5,17 0.219,2.193 0.885,4.193 2,6 -7.049,0.782 -13.716,-0.385 -20,-3.5 -1.175,-2.838 -1.009,-5.671 0.5,-8.5 5.395,-8.781 13.228,-13.614 23.5,-14.5 3.652,-0.499 7.318,-0.665 11,-0.5 z"
           id="path645" /></g><g
         id="g651"><path
           style="opacity:1"
           fill="#234a03"
           d="m 681.5,728.5 c -7.724,2.335 -15.724,3.668 -24,4 7.763,-1.898 15.763,-3.231 24,-4 z"
           id="path649" /></g><g
         id="g655"><path
           style="opacity:1"
           fill="#0e4c24"
           d="m 899.5,728.5 c -0.639,8.433 -1.306,16.766 -2,25 -0.635,-8.734 0.032,-17.067 2,-25 z"
           id="path653" /></g><g
         id="g659"><path
           style="opacity:1"
           fill="#104520"
           d="m 279.5,753.5 c -5.062,-0.226 -10.062,0.108 -15,1 0.111,-0.617 0.444,-1.117 1,-1.5 4.852,-0.815 9.519,-0.648 14,0.5 z"
           id="path657" /></g><g
         id="g663"><path
           style="opacity:1"
           fill="#0d7942"
           d="m 520.5,751.5 c 2.032,0.548 3.032,1.881 3,4 1,0 2,0 3,0 0.706,2.172 1.706,4.172 3,6 -2.393,-0.853 -3.726,-2.519 -4,-5 -1,0 -2,0 -3,0 -0.331,-1.822 -0.998,-3.489 -2,-5 z"
           id="path661" /></g><g
         id="g667"><path
           style="opacity:1"
           fill="#11542b"
           d="m 140.5,760.5 c -3.36,0.116 -6.693,0.449 -10,1 3.208,-2.031 6.541,-2.365 10,-1 z"
           id="path665" /></g><g
         id="g671"><path
           style="opacity:1"
           fill="#05773f"
           d="m 940.5,764.5 c 1.322,-0.17 2.489,0.163 3.5,1 0.759,5.565 -0.074,10.898 -2.5,16 -1.342,1.376 -2.675,2.709 -4,4 -0.667,-0.333 -1.333,-0.667 -2,-1 -1.876,-7.572 -0.21,-14.239 5,-20 z"
           id="path669" /></g><g
         id="g675"><path
           style="opacity:1"
           fill="#114e27"
           d="m 1010.5,768.5 c -0.07,2.928 -0.73,5.595 -2,8 -0.39,-3.053 0.28,-5.72 2,-8 z"
           id="path673" /></g><g
         id="g679"><path
           style="opacity:1"
           fill="#113f1c"
           d="m 148.5,773.5 c 2.518,4.573 3.518,9.573 3,15 -0.912,-4.897 -1.912,-9.897 -3,-15 z"
           id="path677" /></g><g
         id="g683"><path
           style="opacity:1"
           fill="#106b3b"
           d="m 255.5,764.5 c -0.829,4.953 -1.163,9.953 -1,15 -1.148,-4.481 -1.315,-9.148 -0.5,-14 0.383,-0.556 0.883,-0.889 1.5,-1 z"
           id="path681" /></g><g
         id="g687"><path
           style="opacity:1"
           fill="#114a24"
           d="m 1007.5,780.5 c -0.15,3.887 -0.81,7.554 -2,11 -0.38,-3.989 0.28,-7.655 2,-11 z"
           id="path685" /></g><g
         id="g691"><path
           style="opacity:1"
           fill="#104822"
           d="m 887.5,779.5 c -1.145,6.248 -2.812,12.248 -5,18 0.477,-6.417 2.143,-12.417 5,-18 z"
           id="path689" /></g><g
         id="g695"><path
           style="opacity:0.985"
           fill="#3c4431"
           d="m 363.5,794.5 c -3.286,-0.707 -6.619,-1.04 -10,-1 0.672,-2.168 2.172,-3.501 4.5,-4 3.061,0.429 4.894,2.095 5.5,5 z"
           id="path693" /></g><g
         id="g699"><path
           style="opacity:1"
           fill="#0e582d"
           d="m 742.5,792.5 c 0.389,3.053 -0.277,5.72 -2,8 0.302,-2.873 0.969,-5.539 2,-8 z"
           id="path697" /></g><g
         id="g703"><path
           style="opacity:1"
           fill="#0f4922"
           d="m 450.5,800.5 c -4.8,-0.15 -9.467,0.516 -14,2 1.181,-1.567 2.847,-2.401 5,-2.5 3.196,-0.805 6.196,-0.638 9,0.5 z"
           id="path701" /></g><g
         id="g707"><path
           style="opacity:1"
           fill="#0c6f3c"
           d="m 544.5,791.5 c 2.518,4.573 3.518,9.573 3,15 -0.912,-4.897 -1.912,-9.897 -3,-15 z"
           id="path705" /></g><g
         id="g711"><path
           style="opacity:1"
           fill="#104823"
           d="m 1004.5,797.5 c -0.64,5.977 -1.14,11.977 -1.5,18 -0.23,1.237 -0.73,2.237 -1.5,3 0.5,-5.993 1,-11.993 1.5,-18 0.23,-1.237 0.73,-2.237 1.5,-3 z"
           id="path709" /></g><g
         id="g715"><path
           style="opacity:1"
           fill="#0d6b39"
           d="m 855.5,805.5 c 0.665,3.484 0.999,7.151 1,11 -0.467,15.856 -1.467,31.523 -3,47 0.698,-19.332 1.365,-38.666 2,-58 z"
           id="path713" /></g><g
         id="g719"><path
           style="opacity:1"
           fill="#0e5228"
           d="m 881.5,803.5 c -0.506,5.154 -1.173,10.154 -2,15 -0.166,-4.346 10e-4,-8.679 0.5,-13 0.278,-0.916 0.778,-1.582 1.5,-2 z"
           id="path717" /></g><g
         id="g723"><path
           style="opacity:1"
           fill="#0d6836"
           d="m 497.5,803.5 c -0.986,10.963 -0.986,21.963 0,33 -1.897,-10.451 -2.397,-21.118 -1.5,-32 0.383,-0.556 0.883,-0.889 1.5,-1 z"
           id="path721" /></g><g
         id="g727"><path
           style="opacity:1"
           fill="#0d703c"
           d="m 433.5,806.5 c 0.96,8.308 1.627,16.641 2,25 -1.463,-6.623 -2.463,-13.456 -3,-20.5 0.008,-1.707 0.342,-3.207 1,-4.5 z"
           id="path725" /></g><g
         id="g731"><path
           style="opacity:1"
           fill="#0d6736"
           d="m 793.5,805.5 c 0.661,1.634 0.994,3.467 1,5.5 -0.51,9.667 -1.177,19.167 -2,28.5 -0.16,-11.354 0.174,-22.687 1,-34 z"
           id="path729" /></g><g
         id="g735"><path
           style="opacity:1"
           fill="#10713f"
           d="m 965.5,818.5 c 0,4 0,8 0,12 -2.667,-4 -2.667,-8 0,-12 z"
           id="path733" /></g><g
         id="g739"><path
           style="opacity:1"
           fill="#10401d"
           d="m 155.5,812.5 c 1.31,5.788 1.977,11.788 2,18 -1.446,-5.774 -2.112,-11.774 -2,-18 z"
           id="path737" /></g><g
         id="g743"><path
           style="opacity:1"
           fill="#0e562c"
           d="m 470.5,830.5 c 1.75,3.683 2.417,7.683 2,12 -1.117,-3.795 -1.783,-7.795 -2,-12 z"
           id="path741" /></g><g
         id="g747"><path
           style="opacity:1"
           fill="#0f542a"
           d="m 533.5,833.5 c 1.75,3.683 2.417,7.683 2,12 -1.117,-3.795 -1.783,-7.795 -2,-12 z"
           id="path745" /></g><g
         id="g751"><path
           style="opacity:1"
           fill="#0e592d"
           d="m 730.5,838.5 c 0.329,2.728 -0.337,5.062 -2,7 0.221,-2.567 0.888,-4.901 2,-7 z"
           id="path749" /></g><g
         id="g755"><path
           style="opacity:0.992"
           fill="#3e4533"
           d="m 930.5,844.5 c -4.65,-0.086 -8.983,0.914 -13,3 0.58,-6.751 4.247,-9.417 11,-8 -0.108,2.014 0.558,3.68 2,5 z"
           id="path753" /></g><g
         id="g759"><path
           style="opacity:1"
           fill="#0f5429"
           d="m 755.5,836.5 c -0.217,4.205 -0.883,8.205 -2,12 -0.417,-4.317 0.25,-8.317 2,-12 z"
           id="path757" /></g><g
         id="g763"><path
           style="opacity:1"
           fill="#0d6535"
           d="m 497.5,836.5 c 1.707,9.779 2.373,19.779 2,30 -1.045,-9.823 -1.712,-19.823 -2,-30 z"
           id="path761" /></g><g
         id="g767"><path
           style="opacity:1"
           fill="#0e5c2f"
           d="m 472.5,842.5 c 1.618,2.671 2.285,5.671 2,9 -1.618,-2.671 -2.285,-5.671 -2,-9 z"
           id="path765" /></g><g
         id="g771"><path
           style="opacity:1"
           fill="#0f4e26"
           d="m 535.5,845.5 c 1.618,2.671 2.285,5.671 2,9 -1.413,-2.719 -2.08,-5.719 -2,-9 z"
           id="path769" /></g><g
         id="g775"><path
           style="opacity:1"
           fill="#0e6736"
           d="m 436.5,854.5 c 1.436,6.447 2.103,13.114 2,20 -1.539,-6.437 -2.206,-13.104 -2,-20 z"
           id="path773" /></g><g
         id="g779"><path
           style="opacity:1"
           fill="#0d5a2d"
           d="m 752.5,854.5 c -0.448,12.166 -1.114,24.166 -2,36 -0.166,-10.006 0,-20.006 0.5,-30 0.191,-2.208 0.691,-4.208 1.5,-6 z"
           id="path777" /></g><g
         id="g783"><path
           style="opacity:1"
           fill="#0d6635"
           d="m 791.5,854.5 c -0.338,12.172 -1.005,24.172 -2,36 -0.439,-12.217 0.227,-24.217 2,-36 z"
           id="path781" /></g><g
         id="g787"><path
           style="opacity:1"
           fill="#0e5f30"
           d="m 499.5,866.5 c 1.436,6.447 2.103,13.114 2,20 -1.539,-6.437 -2.206,-13.104 -2,-20 z"
           id="path785" /></g><g
         id="g791"><path
           style="opacity:1"
           fill="#0f441f"
           d="m 819.5,833.5 c -2.297,23.932 -2.63,47.932 -1,72 -0.768,-0.763 -1.268,-1.763 -1.5,-3 -0.667,-20.333 -0.667,-40.667 0,-61 0.279,-2.957 1.113,-5.623 2.5,-8 z"
           id="path789" /></g><g
         id="g795"><path
           style="opacity:1"
           fill="#0e5a2e"
           d="m 407.5,872.5 c -0.217,4.205 -0.883,8.205 -2,12 -0.417,-4.317 0.25,-8.317 2,-12 z"
           id="path793" /></g><g
         id="g799"><path
           style="opacity:1"
           fill="#0c6837"
           d="m 572.5,875.5 c 1.491,2.686 2.157,5.686 2,9 -0.005,2.196 -0.338,4.196 -1,6 0.087,-5.037 -0.246,-10.037 -1,-15 z"
           id="path797" /></g><g
         id="g803"><path
           style="opacity:1"
           fill="#0e5b2f"
           d="m 473.5,896.5 c 0.224,6.239 -0.443,12.239 -2,18 -0.316,-6.25 0.35,-12.25 2,-18 z"
           id="path801" /></g><g
         id="g807"><path
           style="opacity:1"
           fill="#0e5a2d"
           d="m 818.5,908.5 c 0.768,0.763 1.268,1.763 1.5,3 0.167,3.5 0.333,7 0.5,10.5 -0.012,3.902 -0.679,7.402 -2,10.5 1.144,-7.942 1.144,-15.942 0,-24 z"
           id="path805" /></g><g
         id="g811"><path
           style="opacity:1"
           fill="#0e6e3c"
           d="m 788.5,902.5 c 0,9 0,18 0,27 -1.491,-2.686 -2.157,-5.686 -2,-9 0.345,-6.185 1.011,-12.185 2,-18 z"
           id="path809" /></g><g
         id="g815"
         style="display:inline"><path
           style="opacity:1"
           fill="#0e723e"
           d="m 502.5,908.5 c 0.984,4.309 1.651,8.809 2,13.5 0.092,2.821 -0.574,5.321 -2,7.5 0,-7 0,-14 0,-21 z"
           id="path813" /></g></g><rect
       style="display:inline;fill:none;fill-opacity:1;stroke:#000000;stroke-width:1.03122;stroke-dasharray:none;stroke-opacity:1"
       id="rect1285"
       width="71.541962"
       height="24.955431"
       x="29.23901"
       y="75.995049"
       ry="4.5516195"
       transform="matrix(1,0,-0.01181036,0.99993026,0,0)"
       inkscape:label="rect1285" /></g></svg>
